<?xml version="1.0" encoding="UTF-8" standalone="no"?>
<!-- Created with Inkscape (http://www.inkscape.org/) -->

<svg
   xmlns:dc="http://purl.org/dc/elements/1.1/"
   xmlns:cc="http://creativecommons.org/ns#"
   xmlns:rdf="http://www.w3.org/1999/02/22-rdf-syntax-ns#"
   xmlns:svg="http://www.w3.org/2000/svg"
   xmlns="http://www.w3.org/2000/svg"
   xmlns:sodipodi="http://sodipodi.sourceforge.net/DTD/sodipodi-0.dtd"
   xmlns:inkscape="http://www.inkscape.org/namespaces/inkscape"
   width="120.18038"
   height="379.99997"
   viewBox="0 0 31.797726 100.54167"
   version="1.1"
   id="svg4541"
   sodipodi:docname="Randomizer.svg"
   inkscape:version="0.92.3 (2405546, 2018-03-11)">
  <defs
     id="defs4535" />
  <sodipodi:namedview
     id="base"
     pagecolor="#ffffff"
     bordercolor="#666666"
     borderopacity="1.0"
     inkscape:pageopacity="0.0"
     inkscape:pageshadow="2"
     inkscape:zoom="5.6"
     inkscape:cx="78.963412"
     inkscape:cy="315.43323"
     inkscape:document-units="mm"
     inkscape:current-layer="g13271"
     showgrid="false"
     fit-margin-top="0"
     fit-margin-left="0"
     fit-margin-right="0"
     fit-margin-bottom="0"
     inkscape:window-width="1233"
     inkscape:window-height="678"
     inkscape:window-x="0"
     inkscape:window-y="27"
     inkscape:window-maximized="0"
     units="px" />
  <metadata
     id="metadata4538">
    <rdf:RDF>
      <cc:Work
         rdf:about="">
        <dc:format>image/svg+xml</dc:format>
        <dc:type
           rdf:resource="http://purl.org/dc/dcmitype/StillImage" />
        <dc:title />
      </cc:Work>
    </rdf:RDF>
  </metadata>
  <g
     inkscape:label="Layer 1"
     inkscape:groupmode="layer"
     id="layer1"
     transform="translate(-6.6477068,-91.775301)">
    <g
       transform="matrix(0.27602379,0,0,0.27602379,354.09618,57.736346)"
       id="g13122"
       style="stroke-width:0.9585526">
      <g
         transform="translate(-167.07644,-20.557569)"
         id="g13178"
         style="stroke-width:0.91882312">
        <g
           transform="translate(-99.2314,6.0949065)"
           id="g13224"
           style="stroke-width:0.88074034">
          <g
             transform="translate(-315.65411,137.78158)"
             id="g13271"
             style="stroke-width:0.84423596">
            <path
               style="fill:#e6e6e6;fill-opacity:1;fill-rule:nonzero;stroke:none;stroke-width:0.84423596"
               d="m -676.5352,0.265625 h 114.67187 V 363.98828 H -676.5352 Z m 0,0"
               id="path25061"
               inkscape:connector-curvature="0"
               inkscape:export-filename="/home/vortico/src/cpp/VCV/Rack/plugins/Fundamental/res/Delay.png"
               inkscape:export-xdpi="100.2962"
               inkscape:export-ydpi="100.2962" />
            <path
               inkscape:connector-curvature="0"
               style="fill:#212121;stroke-width:0.85135299"
               d="m -579.38378,331.08554 c 0,1.33039 -1.00553,2.40933 -2.24398,2.40933 h -70.28874 c -1.23845,0 -2.24302,-1.07894 -2.24302,-2.40933 v -35.32805 c 0,-1.33037 1.00457,-2.40931 2.24302,-2.40931 h 70.28874 c 1.23845,0 2.24398,1.07894 2.24398,2.40931 z"
               id="path11" />
            <g
               style="stroke-width:0.84423596"
               transform="matrix(0.95855264,0,0,0.95855264,-678.00243,-314.04688)"
               id="g33">
              <path
                 inkscape:connector-curvature="0"
                 d="m 40.788,365.042 c -0.197,0.857 -0.572,1.517 -1.126,1.978 -0.57,0.456 -1.245,0.684 -2.023,0.684 -0.705,-0.017 -1.293,-0.194 -1.764,-0.533 -0.479,-0.325 -0.828,-0.702 -1.045,-1.129 -0.066,-0.141 -0.125,-0.273 -0.178,-0.4 -0.049,-0.131 -0.09,-0.297 -0.123,-0.495 -0.062,-0.372 -0.092,-1.087 -0.092,-2.146 0,-1.074 0.031,-1.795 0.092,-2.158 0.065,-0.363 0.166,-0.658 0.301,-0.883 0.217,-0.427 0.565,-0.808 1.045,-1.143 0.471,-0.338 1.06,-0.512 1.765,-0.52 0.865,0.008 1.57,0.271 2.115,0.792 0.545,0.524 0.89,1.173 1.033,1.945 h -1.441 c -0.111,-0.373 -0.312,-0.69 -0.604,-0.954 -0.304,-0.25 -0.673,-0.379 -1.108,-0.388 -0.32,0.009 -0.596,0.074 -0.825,0.197 -0.234,0.127 -0.423,0.286 -0.567,0.478 -0.176,0.199 -0.293,0.455 -0.351,0.77 -0.065,0.33 -0.098,0.951 -0.098,1.863 0,0.912 0.033,1.529 0.099,1.852 0.057,0.322 0.174,0.582 0.351,0.781 0.144,0.191 0.333,0.346 0.567,0.465 0.229,0.141 0.505,0.21 0.825,0.21 0.764,0 1.335,-0.422 1.713,-1.266 z"
                 id="path13" />
              <path
                 inkscape:connector-curvature="0"
                 d="m 41.971,358.373 h 1.357 v 9.254 h -1.357 z"
                 id="path15" />
              <path
                 inkscape:connector-curvature="0"
                 d="m 45.323,358.373 h 3.502 c 0.747,0 1.356,0.203 1.829,0.609 0.568,0.461 0.864,1.119 0.889,1.974 -0.017,1.257 -0.594,2.112 -1.731,2.564 l 2.075,4.106 h -1.613 l -1.855,-3.955 H 46.68 v 3.955 h -1.357 z m 1.357,4.057 h 2.059 c 0.51,-0.009 0.892,-0.162 1.146,-0.459 0.25,-0.275 0.376,-0.615 0.376,-1.018 -0.008,-0.484 -0.158,-0.834 -0.45,-1.051 -0.23,-0.191 -0.563,-0.286 -0.999,-0.286 H 46.68 Z"
                 id="path17" />
              <path
                 inkscape:connector-curvature="0"
                 d="m 59.297,365.042 c -0.197,0.857 -0.572,1.517 -1.125,1.978 -0.57,0.456 -1.244,0.684 -2.023,0.684 -0.705,-0.017 -1.293,-0.194 -1.764,-0.533 -0.479,-0.325 -0.828,-0.702 -1.045,-1.129 -0.066,-0.141 -0.125,-0.273 -0.178,-0.4 -0.049,-0.131 -0.09,-0.297 -0.123,-0.495 -0.062,-0.372 -0.092,-1.087 -0.092,-2.146 0,-1.074 0.031,-1.795 0.092,-2.158 0.065,-0.363 0.166,-0.658 0.301,-0.883 0.217,-0.427 0.565,-0.808 1.045,-1.143 0.471,-0.338 1.059,-0.512 1.764,-0.52 0.865,0.008 1.57,0.271 2.115,0.792 0.545,0.524 0.891,1.173 1.033,1.945 h -1.441 c -0.109,-0.373 -0.311,-0.69 -0.604,-0.954 -0.303,-0.25 -0.672,-0.379 -1.107,-0.388 -0.32,0.009 -0.596,0.074 -0.826,0.197 -0.233,0.127 -0.422,0.286 -0.566,0.478 -0.176,0.199 -0.293,0.455 -0.351,0.77 -0.065,0.33 -0.098,0.951 -0.098,1.863 0,0.912 0.033,1.529 0.099,1.852 0.057,0.322 0.174,0.582 0.351,0.781 0.144,0.191 0.333,0.346 0.567,0.465 0.229,0.141 0.504,0.21 0.824,0.21 0.764,0 1.336,-0.422 1.713,-1.266 z"
                 id="path19" />
              <path
                 inkscape:connector-curvature="0"
                 d="m 60.481,358.373 h 1.357 v 7.935 h 4.369 v 1.319 H 60.48 v -9.254 z"
                 id="path21" />
              <path
                 inkscape:connector-curvature="0"
                 d="m 67.71,358.373 h 5.727 v 1.319 h -4.369 v 2.647 h 3.729 v 1.244 h -3.729 v 2.724 h 4.369 v 1.319 H 67.71 Z"
                 id="path23" />
              <path
                 inkscape:connector-curvature="0"
                 d="m 74.941,358.373 h 5.727 v 1.319 h -4.369 v 2.737 h 3.729 v 1.242 h -3.729 v 3.955 h -1.357 v -9.253 z"
                 id="path25" />
              <path
                 inkscape:connector-curvature="0"
                 d="m 85.8,365.558 h -3.399 l -0.688,2.069 h -1.438 l 3.258,-9.254 h 1.138 l 3.258,9.254 h -1.432 z m -0.387,-1.244 -1.298,-4.049 h -0.024 l -1.297,4.049 z"
                 id="path27" />
              <path
                 inkscape:connector-curvature="0"
                 d="m 89.134,358.373 h 3.137 c 1.214,0.008 2.124,0.528 2.73,1.561 0.218,0.348 0.354,0.711 0.412,1.092 0.045,0.381 0.067,1.039 0.067,1.975 0,0.994 -0.035,1.688 -0.104,2.082 -0.033,0.199 -0.082,0.377 -0.147,0.533 -0.07,0.152 -0.154,0.311 -0.252,0.477 -0.263,0.436 -0.628,0.795 -1.095,1.078 -0.464,0.305 -1.031,0.457 -1.704,0.457 h -3.044 z m 1.357,7.935 h 1.625 c 0.764,0 1.317,-0.269 1.662,-0.808 0.152,-0.199 0.248,-0.451 0.289,-0.757 0.037,-0.302 0.056,-0.865 0.056,-1.692 0,-0.806 -0.019,-1.383 -0.056,-1.73 -0.049,-0.348 -0.166,-0.629 -0.351,-0.846 -0.378,-0.539 -0.911,-0.799 -1.601,-0.782 H 90.49 v 6.615 z"
                 id="path29" />
              <path
                 inkscape:connector-curvature="0"
                 d="m 97.323,358.373 h 5.727 v 1.319 h -4.37 v 2.647 h 3.729 v 1.244 H 98.68 v 2.724 h 4.369 v 1.319 h -5.727 v -9.253 z"
                 id="path31" />
            </g>
            <g
               style="stroke-width:0.84423596"
               transform="matrix(0.95855264,0,0,0.88463861,-680.43305,-0.23640447)"
               id="g55">
              <path
                 inkscape:connector-curvature="0"
                 d="m 34.296,17.977 h 4.311 c 0.919,0 1.669,0.25 2.25,0.75 0.699,0.568 1.063,1.378 1.094,2.43 -0.02,1.547 -0.73,2.599 -2.13,3.156 l 2.554,5.055 H 40.39 L 38.105,24.5 h -2.14 v 4.868 h -1.67 V 17.977 Z m 1.67,4.993 H 38.5 c 0.627,-0.011 1.098,-0.199 1.411,-0.564 0.309,-0.339 0.463,-0.757 0.463,-1.253 -0.01,-0.596 -0.195,-1.026 -0.554,-1.293 -0.283,-0.235 -0.693,-0.353 -1.229,-0.353 h -2.625 z"
                 id="path35" />
              <path
                 inkscape:connector-curvature="0"
                 d="m 49.707,26.82 h -4.185 l -0.847,2.548 h -1.771 l 4.01,-11.391 h 1.4 l 4.01,11.391 H 50.561 Z M 49.23,25.291 47.634,20.308 h -0.03 l -1.597,4.983 z"
                 id="path37" />
              <path
                 inkscape:connector-curvature="0"
                 d="m 53.811,17.977 h 1.574 l 4.998,8.098 h 0.029 v -8.098 h 1.67 V 29.368 H 60.5 L 55.512,21.27 h -0.031 v 8.098 H 53.812 V 17.977 Z"
                 id="path39" />
              <path
                 inkscape:connector-curvature="0"
                 d="m 64.757,17.977 h 3.86 c 1.493,0.011 2.614,0.651 3.361,1.922 0.267,0.427 0.436,0.875 0.506,1.344 0.056,0.469 0.083,1.279 0.083,2.43 0,1.224 -0.043,2.078 -0.128,2.562 -0.041,0.245 -0.102,0.464 -0.182,0.656 -0.086,0.188 -0.189,0.383 -0.311,0.586 -0.323,0.537 -0.772,0.979 -1.348,1.328 -0.57,0.375 -1.269,0.562 -2.097,0.562 h -3.746 v -11.39 z m 1.67,9.767 h 2.001 c 0.939,0 1.621,-0.332 2.045,-0.995 0.188,-0.245 0.306,-0.556 0.356,-0.932 0.045,-0.371 0.068,-1.064 0.068,-2.083 0,-0.991 -0.023,-1.701 -0.068,-2.129 -0.061,-0.428 -0.204,-0.775 -0.432,-1.041 -0.465,-0.663 -1.122,-0.984 -1.97,-0.963 h -2.001 v 8.143 z"
                 id="path41" />
              <path
                 inkscape:connector-curvature="0"
                 d="m 74.46,23.672 c 0,-1.326 0.037,-2.213 0.113,-2.662 0.081,-0.449 0.204,-0.812 0.37,-1.088 0.268,-0.524 0.696,-0.991 1.286,-1.401 0.58,-0.415 1.304,-0.627 2.171,-0.638 0.877,0.011 1.608,0.224 2.193,0.641 0.58,0.412 0.998,0.88 1.256,1.406 0.187,0.276 0.314,0.638 0.386,1.086 0.065,0.448 0.098,1.333 0.098,2.656 0,1.302 -0.032,2.183 -0.098,2.641 -0.071,0.458 -0.199,0.826 -0.386,1.102 -0.258,0.526 -0.676,0.99 -1.256,1.391 -0.585,0.417 -1.316,0.635 -2.193,0.656 -0.867,-0.021 -1.591,-0.239 -2.171,-0.656 -0.59,-0.401 -1.019,-0.864 -1.286,-1.391 -0.08,-0.172 -0.153,-0.336 -0.219,-0.492 -0.061,-0.161 -0.111,-0.364 -0.151,-0.609 -0.076,-0.459 -0.113,-1.339 -0.113,-2.642 z m 1.67,0 c 0,1.122 0.041,1.882 0.121,2.278 0.071,0.396 0.215,0.718 0.433,0.963 0.177,0.235 0.409,0.425 0.697,0.571 0.283,0.172 0.621,0.259 1.016,0.259 0.399,0 0.745,-0.086 1.038,-0.259 0.278,-0.146 0.501,-0.336 0.667,-0.571 0.218,-0.245 0.367,-0.566 0.447,-0.963 0.076,-0.396 0.114,-1.156 0.114,-2.278 0,-1.122 -0.038,-1.887 -0.114,-2.294 -0.08,-0.386 -0.229,-0.702 -0.447,-0.947 -0.166,-0.235 -0.389,-0.431 -0.667,-0.587 -0.293,-0.151 -0.639,-0.232 -1.038,-0.243 -0.395,0.011 -0.732,0.092 -1.016,0.243 -0.288,0.156 -0.521,0.352 -0.697,0.587 -0.218,0.245 -0.361,0.561 -0.433,0.947 -0.08,0.408 -0.121,1.172 -0.121,2.294 z"
                 id="path43" />
              <path
                 inkscape:connector-curvature="0"
                 d="m 84.593,17.977 h 1.574 l 3.163,7.425 3.104,-7.425 h 1.579 v 11.391 h -1.67 v -7.104 h -0.038 l -2.31,5.47 h -1.393 l -2.31,-5.47 h -0.03 v 7.104 h -1.67 V 17.977 Z"
                 id="path45" />
            </g>
            <g
               style="stroke-width:0.84423596"
               transform="matrix(0.95855264,0,0,0.95855264,-677.14658,-5.3924201)"
               id="g61">
              <path
                 inkscape:connector-curvature="0"
                 d="m 25.575,122.426 c -0.121,0.528 -0.352,0.934 -0.692,1.217 -0.351,0.281 -0.766,0.421 -1.246,0.421 -0.434,-0.01 -0.795,-0.12 -1.085,-0.328 -0.295,-0.201 -0.509,-0.432 -0.643,-0.695 -0.04,-0.086 -0.077,-0.168 -0.109,-0.246 -0.03,-0.081 -0.056,-0.182 -0.076,-0.305 -0.038,-0.229 -0.057,-0.669 -0.057,-1.32 0,-0.662 0.019,-1.104 0.057,-1.328 0.041,-0.224 0.102,-0.405 0.186,-0.543 0.133,-0.263 0.348,-0.498 0.643,-0.703 0.29,-0.208 0.652,-0.315 1.086,-0.32 0.532,0.005 0.966,0.168 1.302,0.487 0.335,0.323 0.547,0.722 0.635,1.198 h -0.887 c -0.068,-0.23 -0.192,-0.425 -0.371,-0.587 -0.187,-0.154 -0.415,-0.233 -0.682,-0.239 -0.197,0.005 -0.366,0.046 -0.508,0.122 -0.144,0.078 -0.26,0.176 -0.349,0.293 -0.109,0.123 -0.181,0.281 -0.216,0.474 -0.04,0.204 -0.061,0.586 -0.061,1.147 0,0.561 0.021,0.941 0.061,1.139 0.035,0.198 0.107,0.359 0.216,0.481 0.088,0.118 0.205,0.213 0.349,0.286 0.142,0.086 0.311,0.129 0.508,0.129 0.47,0 0.821,-0.26 1.054,-0.779 h 0.885 z"
                 id="path57" />
              <path
                 inkscape:connector-curvature="0"
                 d="m 25.729,118.322 h 0.884 l 1.251,4.338 h 0.015 l 1.254,-4.338 h 0.884 l -1.821,5.695 h -0.65 z"
                 id="path59" />
            </g>
            <g
               style="stroke-width:0.84423596"
               transform="matrix(0.95855264,0,0,0.95855264,-673.31236,-5.3924201)"
               id="g77">
              <path
                 inkscape:connector-curvature="0"
                 d="m 67.574,107.655 h 2.412 c 0.934,0.006 1.635,0.407 2.102,1.201 0.166,0.267 0.271,0.547 0.316,0.84 0.035,0.293 0.052,0.799 0.052,1.519 0,0.765 -0.026,1.299 -0.081,1.602 -0.024,0.153 -0.062,0.29 -0.113,0.41 -0.053,0.117 -0.117,0.239 -0.193,0.366 -0.202,0.335 -0.482,0.612 -0.842,0.83 -0.357,0.234 -0.793,0.352 -1.311,0.352 h -2.342 z m 1.044,6.104 h 1.25 c 0.587,0 1.014,-0.207 1.278,-0.622 0.117,-0.153 0.191,-0.347 0.223,-0.582 0.029,-0.232 0.043,-0.666 0.043,-1.302 0,-0.62 -0.014,-1.063 -0.043,-1.331 -0.037,-0.267 -0.127,-0.484 -0.27,-0.65 -0.291,-0.415 -0.701,-0.615 -1.231,-0.602 h -1.25 z"
                 id="path63" />
              <path
                 inkscape:connector-curvature="0"
                 d="m 73.873,107.655 h 4.405 v 1.015 h -3.361 v 2.037 h 2.869 v 0.956 h -2.869 v 2.096 h 3.361 v 1.015 h -4.405 z"
                 id="path65" />
              <path
                 inkscape:connector-curvature="0"
                 d="m 79.435,107.655 h 0.984 l 3.122,5.061 h 0.02 v -5.061 h 1.044 v 7.119 h -0.989 l -3.117,-5.061 h -0.02 v 5.061 h -1.044 z"
                 id="path67" />
              <path
                 inkscape:connector-curvature="0"
                 d="m 86.362,113.05 c 0.549,0.466 1.201,0.703 1.959,0.709 0.896,-0.013 1.351,-0.344 1.362,-0.992 0.008,-0.531 -0.293,-0.85 -0.898,-0.958 -0.277,-0.039 -0.582,-0.083 -0.912,-0.132 -0.593,-0.101 -1.044,-0.327 -1.353,-0.679 -0.319,-0.362 -0.479,-0.801 -0.479,-1.319 0,-0.623 0.2,-1.124 0.6,-1.505 0.388,-0.378 0.938,-0.57 1.649,-0.577 0.857,0.02 1.602,0.265 2.234,0.735 l -0.582,0.886 c -0.516,-0.352 -1.086,-0.535 -1.707,-0.548 -0.322,0 -0.591,0.083 -0.805,0.25 -0.224,0.172 -0.339,0.43 -0.346,0.772 0,0.205 0.077,0.391 0.231,0.557 0.154,0.169 0.402,0.287 0.743,0.352 0.189,0.033 0.447,0.07 0.775,0.113 0.646,0.091 1.125,0.331 1.434,0.718 0.307,0.381 0.459,0.824 0.459,1.329 -0.035,1.362 -0.842,2.053 -2.42,2.072 -1.021,0 -1.897,-0.324 -2.632,-0.972 z"
                 id="path69" />
              <path
                 inkscape:connector-curvature="0"
                 d="m 92.012,107.655 h 1.045 v 7.119 h -1.045 z"
                 id="path71" />
              <path
                 inkscape:connector-curvature="0"
                 d="m 95.762,108.612 h -1.89 v -0.957 h 4.825 v 0.957 h -1.891 v 6.163 h -1.045 v -6.163 z"
                 id="path73" />
              <path
                 inkscape:connector-curvature="0"
                 d="m 100.791,111.846 -2.075,-4.19 h 1.107 l 1.462,3.159 1.462,-3.159 h 1.106 l -2.076,4.189 v 2.93 h -0.986 z"
                 id="path75" />
            </g>
            <g
               style="stroke-width:0.84423596"
               transform="matrix(0.95855264,0,0,0.95855264,-673.31236,-5.3924201)"
               id="g117">
              <path
                 inkscape:connector-curvature="0"
                 d="m 65.858,240.788 h 2.694 c 0.574,0 1.043,0.156 1.406,0.469 0.437,0.354 0.665,0.86 0.684,1.519 -0.013,0.967 -0.456,1.625 -1.331,1.973 l 1.596,3.159 h -1.24 l -1.428,-3.042 h -1.337 v 3.042 h -1.044 z m 1.044,3.12 h 1.583 c 0.393,-0.006 0.687,-0.123 0.883,-0.352 0.192,-0.213 0.289,-0.474 0.289,-0.783 -0.006,-0.373 -0.121,-0.643 -0.346,-0.809 -0.178,-0.146 -0.434,-0.221 -0.769,-0.221 h -1.641 v 2.165 z"
                 id="path103" />
              <path
                 inkscape:connector-curvature="0"
                 d="m 75.49,246.314 h -2.615 l -0.53,1.593 h -1.106 l 2.506,-7.119 h 0.875 l 2.507,7.119 h -1.103 z m -0.298,-0.955 -0.998,-3.115 h -0.019 l -0.997,3.115 z"
                 id="path105" />
              <path
                 inkscape:connector-curvature="0"
                 d="m 78.485,241.744 h -1.891 v -0.956 h 4.826 v 0.956 h -1.892 v 6.163 h -1.044 v -6.163 z"
                 id="path107" />
              <path
                 inkscape:connector-curvature="0"
                 d="m 86.964,245.918 c -0.152,0.66 -0.44,1.167 -0.866,1.521 -0.438,0.352 -0.957,0.526 -1.557,0.526 -0.542,-0.013 -0.994,-0.149 -1.356,-0.41 -0.369,-0.251 -0.637,-0.54 -0.804,-0.869 -0.051,-0.107 -0.096,-0.21 -0.137,-0.308 -0.039,-0.102 -0.07,-0.229 -0.096,-0.381 -0.047,-0.287 -0.07,-0.836 -0.07,-1.65 0,-0.826 0.023,-1.381 0.07,-1.66 0.051,-0.279 0.129,-0.506 0.232,-0.679 0.167,-0.329 0.436,-0.622 0.805,-0.879 0.361,-0.261 0.814,-0.394 1.356,-0.4 0.665,0.007 1.208,0.21 1.627,0.609 0.42,0.403 0.684,0.901 0.795,1.497 h -1.108 c -0.086,-0.287 -0.24,-0.531 -0.465,-0.734 -0.233,-0.192 -0.518,-0.292 -0.852,-0.299 -0.247,0.007 -0.459,0.058 -0.635,0.152 -0.181,0.098 -0.326,0.221 -0.437,0.367 -0.136,0.152 -0.226,0.351 -0.271,0.592 -0.05,0.254 -0.075,0.732 -0.075,1.434 0,0.702 0.025,1.176 0.075,1.424 0.045,0.248 0.135,0.449 0.271,0.602 0.109,0.146 0.256,0.266 0.436,0.357 0.177,0.107 0.389,0.162 0.635,0.162 0.588,0 1.027,-0.325 1.317,-0.975 h 1.11 z"
                 id="path109" />
              <path
                 inkscape:connector-curvature="0"
                 d="m 91.653,244.797 h -2.734 v 3.11 h -1.045 v -7.119 h 1.045 v 3.052 h 2.734 v -3.052 h 1.045 v 7.119 h -1.045 z"
                 id="path111" />
              <path
                 inkscape:connector-curvature="0"
                 d="m 94.354,240.788 h 4.405 v 1.015 h -3.36 v 2.037 h 2.868 v 0.957 h -2.868 v 2.096 h 3.36 v 1.015 h -4.405 z"
                 id="path113" />
              <path
                 inkscape:connector-curvature="0"
                 d="m 101.086,241.744 h -1.89 v -0.956 h 4.825 v 0.956 h -1.891 v 6.163 h -1.045 v -6.163 z"
                 id="path115" />
            </g>
            <g
               style="stroke-width:0.84423596"
               transform="matrix(0.95855264,0,0,0.95855264,-677.14658,-5.3924201)"
               id="g123">
              <path
                 inkscape:connector-curvature="0"
                 d="m 25.575,255.484 c -0.121,0.527 -0.352,0.934 -0.692,1.217 -0.351,0.281 -0.766,0.422 -1.246,0.422 -0.434,-0.011 -0.795,-0.12 -1.085,-0.328 -0.295,-0.201 -0.509,-0.433 -0.643,-0.695 -0.04,-0.086 -0.077,-0.168 -0.109,-0.246 -0.03,-0.081 -0.056,-0.183 -0.076,-0.305 -0.038,-0.229 -0.057,-0.67 -0.057,-1.32 0,-0.662 0.019,-1.104 0.057,-1.328 0.041,-0.225 0.102,-0.405 0.186,-0.543 0.133,-0.264 0.348,-0.498 0.643,-0.703 0.29,-0.209 0.652,-0.315 1.086,-0.32 0.532,0.005 0.966,0.168 1.302,0.486 0.335,0.323 0.547,0.723 0.635,1.198 h -0.887 c -0.068,-0.229 -0.192,-0.425 -0.371,-0.587 -0.187,-0.154 -0.415,-0.234 -0.682,-0.239 -0.197,0.005 -0.366,0.046 -0.508,0.122 -0.144,0.078 -0.26,0.176 -0.349,0.293 -0.109,0.123 -0.181,0.281 -0.216,0.474 -0.04,0.204 -0.061,0.586 -0.061,1.147 0,0.561 0.021,0.94 0.061,1.139 0.035,0.198 0.107,0.359 0.216,0.481 0.088,0.118 0.205,0.213 0.349,0.286 0.142,0.086 0.311,0.129 0.508,0.129 0.47,0 0.821,-0.26 1.054,-0.779 h 0.885 z"
                 id="path119" />
              <path
                 inkscape:connector-curvature="0"
                 d="m 25.729,251.381 h 0.884 l 1.251,4.338 h 0.015 l 1.254,-4.338 h 0.884 l -1.821,5.695 h -0.65 z"
                 id="path121" />
            </g>
            <g
               style="stroke-width:0.84423596"
               transform="matrix(0.95855264,0,0,0.95855264,-677.14658,-5.3924201)"
               id="g129">
              <path
                 inkscape:connector-curvature="0"
                 d="m 25.575,188.963 c -0.121,0.528 -0.352,0.934 -0.692,1.217 -0.351,0.281 -0.766,0.421 -1.246,0.421 -0.434,-0.01 -0.795,-0.12 -1.085,-0.328 -0.295,-0.201 -0.509,-0.432 -0.643,-0.695 -0.04,-0.086 -0.077,-0.168 -0.109,-0.246 -0.03,-0.081 -0.056,-0.182 -0.076,-0.305 -0.038,-0.229 -0.057,-0.669 -0.057,-1.32 0,-0.662 0.019,-1.104 0.057,-1.328 0.041,-0.224 0.102,-0.405 0.186,-0.543 0.133,-0.263 0.348,-0.498 0.643,-0.703 0.29,-0.208 0.652,-0.315 1.086,-0.32 0.532,0.005 0.966,0.168 1.302,0.487 0.335,0.323 0.547,0.722 0.635,1.198 h -0.887 c -0.068,-0.23 -0.192,-0.425 -0.371,-0.587 -0.187,-0.154 -0.415,-0.233 -0.682,-0.239 -0.197,0.005 -0.366,0.046 -0.508,0.122 -0.144,0.078 -0.26,0.176 -0.349,0.293 -0.109,0.123 -0.181,0.281 -0.216,0.474 -0.04,0.204 -0.061,0.586 -0.061,1.147 0,0.561 0.021,0.941 0.061,1.139 0.035,0.198 0.107,0.359 0.216,0.481 0.088,0.118 0.205,0.213 0.349,0.286 0.142,0.086 0.311,0.129 0.508,0.129 0.47,0 0.821,-0.26 1.054,-0.779 h 0.885 z"
                 id="path125" />
              <path
                 inkscape:connector-curvature="0"
                 d="m 25.729,184.859 h 0.884 l 1.251,4.338 h 0.015 l 1.254,-4.338 h 0.884 l -1.821,5.695 h -0.65 z"
                 id="path127" />
            </g>
            <ellipse
               cx="-653.68036"
               cy="33.891422"
               rx="5.7189851"
               ry="6.5208964"
               id="ellipse131"
               style="stroke-width:0.62295991" />
            <ellipse
               style="fill:#e6e6e6;fill-opacity:1;stroke-width:0.62295991"
               cx="-653.68036"
               cy="33.891422"
               rx="3.7169189"
               ry="4.2381949"
               id="ellipse133" />
            <ellipse
               cx="-653.68036"
               cy="33.892941"
               rx="1.7155552"
               ry="1.9562691"
               id="ellipse135"
               style="stroke-width:0.62295991" />
            <polygon
               transform="matrix(0.70223293,0,0,0.77537415,-670.51994,-247.69467)"
               style="fill:#e6e6e6;fill-opacity:1;stroke-width:0.84423596"
               points="28.555,365.118 28.555,361.205 32.531,363.162 "
               id="polygon137" />
            <g
               style="stroke-width:0.84423596"
               transform="matrix(0.95855264,0,0,0.95855264,-677.14658,-3.4753148)"
               id="g147">
              <path
                 style="fill:#ffffff"
                 inkscape:connector-curvature="0"
                 d="M 77.539,316.73 H 79.5 v 1.158 c -0.01,0.569 -0.199,1.047 -0.566,1.432 -0.371,0.383 -0.838,0.578 -1.4,0.589 -0.434,-0.011 -0.795,-0.12 -1.085,-0.328 -0.295,-0.2 -0.509,-0.433 -0.644,-0.695 -0.039,-0.086 -0.076,-0.168 -0.109,-0.246 -0.029,-0.081 -0.055,-0.183 -0.075,-0.305 -0.038,-0.229 -0.057,-0.669 -0.057,-1.32 0,-0.661 0.019,-1.104 0.057,-1.328 0.04,-0.224 0.103,-0.405 0.185,-0.543 0.135,-0.263 0.349,-0.497 0.644,-0.703 0.29,-0.208 0.651,-0.315 1.085,-0.32 0.532,0.005 0.967,0.168 1.301,0.488 0.336,0.323 0.548,0.723 0.636,1.199 h -0.886 c -0.068,-0.23 -0.192,-0.427 -0.371,-0.589 -0.188,-0.154 -0.414,-0.234 -0.682,-0.24 -0.197,0.006 -0.367,0.047 -0.508,0.122 -0.145,0.078 -0.26,0.176 -0.348,0.294 -0.109,0.122 -0.182,0.28 -0.217,0.473 -0.04,0.204 -0.061,0.586 -0.061,1.147 0,0.561 0.021,0.94 0.061,1.14 0.035,0.197 0.107,0.358 0.217,0.48 0.088,0.118 0.204,0.213 0.348,0.286 0.143,0.087 0.311,0.13 0.508,0.13 0.326,0 0.596,-0.115 0.808,-0.346 0.212,-0.219 0.321,-0.508 0.326,-0.865 v -0.299 h -1.126 v -0.811 z"
                 id="path139" />
              <path
                 style="fill:#ffffff"
                 inkscape:connector-curvature="0"
                 d="m 83.457,318.588 h -2.092 l -0.424,1.274 h -0.886 l 2.005,-5.695 h 0.7 l 2.005,5.695 h -0.881 z m -0.238,-0.764 -0.799,-2.492 h -0.016 l -0.797,2.492 z"
                 id="path141" />
              <path
                 style="fill:#ffffff"
                 inkscape:connector-curvature="0"
                 d="M 85.853,314.932 H 84.34 v -0.765 h 3.861 v 0.765 h -1.514 v 4.931 h -0.835 v -4.931 z"
                 id="path143" />
              <path
                 style="fill:#ffffff"
                 inkscape:connector-curvature="0"
                 d="m 88.915,314.167 h 3.524 v 0.812 H 89.75 v 1.631 h 2.295 v 0.764 H 89.75 v 1.678 h 2.689 v 0.812 h -3.524 z"
                 id="path145" />
            </g>
            <g
               style="stroke-width:0.84423596"
               transform="matrix(0.95855264,0,0,0.95855264,-677.14658,-3.4753148)"
               id="g159">
              <path
                 style="fill:#ffffff"
                 inkscape:connector-curvature="0"
                 d="m 31.377,314.167 h 2 c 0.217,0 0.427,0.021 0.629,0.062 0.202,0.055 0.406,0.167 0.613,0.336 0.174,0.128 0.315,0.31 0.423,0.547 0.113,0.229 0.17,0.5 0.17,0.812 0,0.422 -0.144,0.806 -0.432,1.151 -0.295,0.365 -0.728,0.553 -1.295,0.562 h -1.273 v 2.224 h -0.835 z m 0.835,2.661 h 1.24 c 0.311,-0.006 0.545,-0.105 0.702,-0.299 0.149,-0.188 0.224,-0.397 0.224,-0.628 0,-0.19 -0.03,-0.353 -0.091,-0.483 -0.063,-0.117 -0.151,-0.21 -0.265,-0.277 -0.172,-0.113 -0.372,-0.166 -0.599,-0.162 h -1.209 v 1.849 z"
                 id="path149" />
              <path
                 style="fill:#ffffff"
                 inkscape:connector-curvature="0"
                 d="m 36.119,314.167 h 0.835 v 5.695 h -0.835 z"
                 id="path151" />
              <path
                 style="fill:#ffffff"
                 inkscape:connector-curvature="0"
                 d="m 39.119,314.932 h -1.512 v -0.765 h 3.86 v 0.765 h -1.513 v 4.931 h -0.835 z"
                 id="path153" />
              <path
                 style="fill:#ffffff"
                 inkscape:connector-curvature="0"
                 d="m 45.902,318.271 c -0.121,0.527 -0.352,0.934 -0.692,1.217 -0.351,0.28 -0.766,0.421 -1.246,0.421 -0.434,-0.011 -0.795,-0.12 -1.085,-0.328 -0.295,-0.2 -0.509,-0.433 -0.643,-0.695 -0.04,-0.086 -0.077,-0.168 -0.109,-0.246 -0.03,-0.081 -0.056,-0.183 -0.076,-0.305 -0.038,-0.229 -0.057,-0.669 -0.057,-1.32 0,-0.661 0.019,-1.104 0.057,-1.328 0.041,-0.224 0.102,-0.405 0.186,-0.543 0.133,-0.263 0.348,-0.497 0.643,-0.703 0.29,-0.208 0.652,-0.315 1.086,-0.32 0.532,0.005 0.966,0.168 1.302,0.487 0.335,0.322 0.547,0.722 0.635,1.197 h -0.887 c -0.068,-0.229 -0.192,-0.425 -0.371,-0.587 -0.187,-0.153 -0.415,-0.233 -0.682,-0.239 -0.197,0.006 -0.366,0.047 -0.508,0.122 -0.144,0.078 -0.26,0.176 -0.349,0.294 -0.109,0.122 -0.181,0.28 -0.216,0.473 -0.04,0.204 -0.061,0.586 -0.061,1.147 0,0.561 0.021,0.94 0.061,1.14 0.035,0.197 0.107,0.358 0.216,0.48 0.088,0.118 0.205,0.213 0.349,0.286 0.142,0.087 0.311,0.13 0.508,0.13 0.47,0 0.821,-0.26 1.054,-0.779 h 0.885 z"
                 id="path155" />
              <path
                 style="fill:#ffffff"
                 inkscape:connector-curvature="0"
                 d="m 49.654,317.373 h -2.188 v 2.489 h -0.835 v -5.695 h 0.835 v 2.442 h 2.188 v -2.442 h 0.835 v 5.695 h -0.835 z"
                 id="path157" />
            </g>
            <line
               style="fill:none;stroke:#000000;stroke-width:0.80924463;stroke-linecap:round;stroke-linejoin:round;stroke-miterlimit:10"
               stroke-miterlimit="10"
               x1="-658.61389"
               y1="78.807816"
               x2="-649.33221"
               y2="78.807816"
               id="line161" />
            <line
               style="fill:none;stroke:#000000;stroke-width:0.80924463;stroke-linecap:round;stroke-linejoin:round;stroke-miterlimit:10"
               stroke-miterlimit="10"
               x1="-648.75903"
               y1="56.440945"
               x2="-648.75903"
               y2="78.807816"
               id="line163" />
            <line
               style="fill:none;stroke:#000000;stroke-width:0.80924463;stroke-linecap:round;stroke-linejoin:round;stroke-miterlimit:10"
               stroke-miterlimit="10"
               x1="-648.75903"
               y1="56.440945"
               x2="-644.14551"
               y2="56.440945"
               id="line165" />
            <line
               style="fill:none;stroke:#000000;stroke-width:0.80924463;stroke-linecap:round;stroke-linejoin:round;stroke-miterlimit:10"
               stroke-miterlimit="10"
               x1="-643.77838"
               y1="56.440945"
               x2="-643.77838"
               y2="78.807816"
               id="line167" />
            <line
               style="fill:none;stroke:#000000;stroke-width:0.80924463;stroke-linecap:round;stroke-linejoin:round;stroke-miterlimit:10"
               stroke-miterlimit="10"
               x1="-643.77838"
               y1="78.807816"
               x2="-639.16486"
               y2="78.807816"
               id="line169" />
            <line
               style="fill:none;stroke:#000000;stroke-width:0.80924463;stroke-linecap:round;stroke-linejoin:round;stroke-miterlimit:10"
               stroke-miterlimit="10"
               x1="-639.16486"
               y1="56.440945"
               x2="-639.16486"
               y2="78.807816"
               id="line171" />
            <line
               style="fill:none;stroke:#000000;stroke-width:0.80924463;stroke-linecap:round;stroke-linejoin:round;stroke-miterlimit:10"
               stroke-miterlimit="10"
               x1="-634.1842"
               y1="56.440945"
               x2="-634.1842"
               y2="78.807816"
               id="line173" />
            <line
               style="fill:none;stroke:#000000;stroke-width:0.80924463;stroke-linecap:round;stroke-linejoin:round;stroke-miterlimit:10"
               stroke-miterlimit="10"
               x1="-639.16486"
               y1="56.440945"
               x2="-634.55133"
               y2="56.440945"
               id="line175" />
            <line
               style="fill:none;stroke:#000000;stroke-width:0.80924463;stroke-linecap:round;stroke-linejoin:round;stroke-miterlimit:10"
               stroke-miterlimit="10"
               x1="-634.1842"
               y1="78.807816"
               x2="-629.57166"
               y2="78.807816"
               id="line177" />
            <line
               style="fill:none;stroke:#000000;stroke-width:0.80924463;stroke-linecap:round;stroke-linejoin:round;stroke-miterlimit:10"
               stroke-miterlimit="10"
               x1="-629.57068"
               y1="56.440945"
               x2="-629.57068"
               y2="78.807816"
               id="line179" />
            <line
               style="fill:none;stroke:#000000;stroke-width:0.80924463;stroke-linecap:round;stroke-linejoin:round;stroke-miterlimit:10"
               stroke-miterlimit="10"
               x1="-629.57068"
               y1="56.440945"
               x2="-624.95721"
               y2="56.440945"
               id="line181" />
            <line
               style="fill:none;stroke:#000000;stroke-width:0.80924463;stroke-linecap:round;stroke-linejoin:round;stroke-miterlimit:10"
               stroke-miterlimit="10"
               x1="-624.591"
               y1="56.440945"
               x2="-624.591"
               y2="78.807816"
               id="line183" />
            <line
               style="fill:none;stroke:#000000;stroke-width:0.80924463;stroke-linecap:round;stroke-linejoin:round;stroke-miterlimit:10"
               stroke-miterlimit="10"
               x1="-624.591"
               y1="78.807816"
               x2="-603.07446"
               y2="78.807816"
               id="line185" />
            <line
               style="fill:none;stroke:#000000;stroke-width:0.80924463;stroke-linecap:round;stroke-linejoin:round;stroke-miterlimit:10"
               stroke-miterlimit="10"
               x1="-603.1521"
               y1="56.440945"
               x2="-603.1521"
               y2="78.807816"
               id="line187" />
            <line
               style="fill:none;stroke:#000000;stroke-width:0.80924463;stroke-linecap:round;stroke-linejoin:round;stroke-miterlimit:10"
               stroke-miterlimit="10"
               x1="-603.1521"
               y1="56.440945"
               x2="-598.53955"
               y2="56.440945"
               id="line189" />
            <line
               style="fill:none;stroke:#000000;stroke-width:0.80924463;stroke-linecap:round;stroke-linejoin:round;stroke-miterlimit:10"
               stroke-miterlimit="10"
               x1="-598.17242"
               y1="56.440945"
               x2="-598.17242"
               y2="78.807816"
               id="line191" />
            <line
               style="fill:none;stroke:#000000;stroke-width:0.80924463;stroke-linecap:round;stroke-linejoin:round;stroke-miterlimit:10"
               stroke-miterlimit="10"
               x1="-598.17242"
               y1="78.807816"
               x2="-593.55988"
               y2="78.807816"
               id="line193" />
            <line
               style="fill:none;stroke:#000000;stroke-width:0.80924463;stroke-linecap:round;stroke-linejoin:round;stroke-miterlimit:10"
               stroke-miterlimit="10"
               x1="-593.5589"
               y1="56.440945"
               x2="-593.5589"
               y2="78.807816"
               id="line195" />
            <line
               style="fill:none;stroke:#000000;stroke-width:0.80924463;stroke-linecap:round;stroke-linejoin:round;stroke-miterlimit:10"
               stroke-miterlimit="10"
               x1="-588.57825"
               y1="56.440945"
               x2="-588.57825"
               y2="78.807816"
               id="line197" />
            <line
               style="fill:none;stroke:#000000;stroke-width:0.80924463;stroke-linecap:round;stroke-linejoin:round;stroke-miterlimit:10"
               stroke-miterlimit="10"
               x1="-593.5589"
               y1="56.440945"
               x2="-588.94537"
               y2="56.440945"
               id="line199" />
            <line
               style="fill:none;stroke:#000000;stroke-width:0.80924463;stroke-linecap:round;stroke-linejoin:round;stroke-miterlimit:10"
               stroke-miterlimit="10"
               x1="-588.57825"
               y1="78.807816"
               x2="-583.9657"
               y2="78.807816"
               id="line201" />
            <g
               transform="matrix(0.95855264,0,0,0.95855264,-677.52472,-8.6142826)"
               id="g101">
              <path
                 inkscape:connector-curvature="0"
                 d="m 53.696,176.243 h -1.89 v -0.957 h 4.825 v 0.957 H 54.74 v 6.163 h -1.044 z"
                 id="path79" />
              <path
                 inkscape:connector-curvature="0"
                 d="m 57.524,175.287 h 4.406 v 1.015 h -3.362 v 2.037 h 2.87 v 0.956 h -2.87 v 2.096 h 3.362 v 1.015 h -4.406 z"
                 id="path81" />
              <path
                 inkscape:connector-curvature="0"
                 d="m 63.086,175.287 h 0.983 l 1.978,4.641 1.939,-4.641 h 0.986 v 7.119 H 67.93 v -4.44 h -0.024 l -1.442,3.419 h -0.871 l -1.443,-3.419 h -0.02 v 4.44 h -1.043 v -7.119 z"
                 id="path83" />
              <path
                 inkscape:connector-curvature="0"
                 d="m 70.664,175.287 h 2.5 c 0.271,0 0.533,0.026 0.785,0.078 0.252,0.068 0.508,0.208 0.768,0.42 0.217,0.16 0.393,0.387 0.529,0.684 0.141,0.286 0.213,0.625 0.213,1.016 0,0.527 -0.182,1.007 -0.541,1.44 -0.369,0.456 -0.908,0.69 -1.619,0.703 h -1.592 v 2.779 h -1.043 z m 1.043,3.325 h 1.551 c 0.389,-0.006 0.682,-0.131 0.877,-0.373 0.186,-0.235 0.279,-0.497 0.279,-0.785 0,-0.239 -0.037,-0.44 -0.113,-0.604 -0.08,-0.147 -0.189,-0.263 -0.332,-0.348 -0.215,-0.141 -0.465,-0.208 -0.748,-0.201 h -1.514 z"
                 id="path85" />
              <path
                 inkscape:connector-curvature="0"
                 d="m 76.59,175.287 h 4.406 v 1.015 h -3.361 v 2.037 h 2.869 v 0.956 h -2.869 v 2.096 h 3.361 v 1.015 H 76.59 Z"
                 id="path87" />
              <path
                 inkscape:connector-curvature="0"
                 d="m 82.153,175.287 h 2.695 c 0.574,0 1.043,0.156 1.406,0.469 0.438,0.355 0.664,0.861 0.684,1.519 -0.012,0.967 -0.457,1.625 -1.332,1.973 l 1.596,3.159 h -1.24 l -1.426,-3.042 h -1.338 v 3.042 h -1.045 z m 1.045,3.12 h 1.584 c 0.393,-0.006 0.686,-0.124 0.881,-0.353 0.193,-0.212 0.289,-0.473 0.289,-0.783 -0.006,-0.372 -0.121,-0.642 -0.346,-0.808 -0.176,-0.146 -0.432,-0.22 -0.768,-0.22 h -1.641 v 2.164 z"
                 id="path89" />
              <path
                 inkscape:connector-curvature="0"
                 d="M 91.785,180.813 H 89.17 l -0.529,1.592 h -1.107 l 2.506,-7.119 h 0.875 l 2.508,7.119 h -1.104 z m -0.298,-0.956 -0.998,-3.115 h -0.018 l -0.998,3.115 z"
                 id="path91" />
              <path
                 inkscape:connector-curvature="0"
                 d="m 94.78,176.243 h -1.889 v -0.957 h 4.824 v 0.957 h -1.891 v 6.163 H 94.78 Z"
                 id="path93" />
              <path
                 inkscape:connector-curvature="0"
                 d="m 98.481,175.287 h 1.045 v 4.594 c 0.006,0.485 0.143,0.855 0.408,1.109 0.258,0.267 0.592,0.401 0.998,0.401 0.408,0 0.744,-0.134 1.01,-0.401 0.258,-0.254 0.391,-0.624 0.396,-1.109 v -4.594 h 1.045 v 4.707 c -0.012,0.749 -0.248,1.343 -0.705,1.782 -0.461,0.453 -1.043,0.682 -1.746,0.688 -0.689,-0.006 -1.268,-0.236 -1.73,-0.688 -0.475,-0.439 -0.713,-1.033 -0.721,-1.78 z"
                 id="path95" />
              <path
                 inkscape:connector-curvature="0"
                 d="m 104.906,175.287 h 2.695 c 0.574,0 1.043,0.156 1.406,0.469 0.438,0.355 0.664,0.861 0.684,1.519 -0.012,0.967 -0.457,1.625 -1.332,1.973 l 1.596,3.159 h -1.24 l -1.426,-3.042 h -1.338 v 3.042 h -1.045 z m 1.045,3.12 h 1.584 c 0.393,-0.006 0.686,-0.124 0.881,-0.353 0.193,-0.212 0.289,-0.473 0.289,-0.783 -0.006,-0.372 -0.121,-0.642 -0.346,-0.808 -0.176,-0.146 -0.432,-0.22 -0.768,-0.22 h -1.641 v 2.164 z"
                 id="path97" />
              <path
                 inkscape:connector-curvature="0"
                 d="m 111.004,175.287 h 4.406 v 1.015 h -3.361 v 2.037 h 2.869 v 0.956 h -2.869 v 2.096 h 3.361 v 1.015 h -4.406 z"
                 id="path99" />
            </g>
            <circle
               style="fill:#000000;fill-opacity:1;stroke:#e6e6e6;stroke-width:1.17948103;stroke-opacity:1"
               id="path108"
               cx="-651.45099"
               cy="131.09956"
               r="13.901764" />
            <rect
               style="fill:#000000;fill-opacity:1;stroke:#e6e6e6;stroke-width:0;stroke-miterlimit:4;stroke-dasharray:none;stroke-opacity:1"
               id="rect113"
               width="50.324013"
               height="1.7117012"
               x="-645.04565"
               y="131.64137" />
            <circle
               style="fill:#000000;fill-opacity:1;stroke:#e6e6e6;stroke-width:1.17948115;stroke-opacity:1"
               id="path108-3"
               cx="-651.72473"
               cy="195.35588"
               r="13.901764" />
            <rect
               style="fill:#000000;fill-opacity:1;stroke:#e6e6e6;stroke-width:0;stroke-miterlimit:4;stroke-dasharray:none;stroke-opacity:1"
               id="rect113-6"
               width="50.324009"
               height="1.7117012"
               x="-645.66174"
               y="194.35715" />
            <circle
               style="fill:#000000;fill-opacity:1;stroke:#e6e6e6;stroke-width:1.17948115;stroke-opacity:1"
               id="path108-7"
               cx="-651.51935"
               cy="259.34225"
               r="13.901764" />
            <rect
               style="fill:#000000;fill-opacity:1;stroke:#e6e6e6;stroke-width:0;stroke-miterlimit:4;stroke-dasharray:none;stroke-opacity:1"
               id="rect113-5"
               width="50.324009"
               height="1.7117012"
               x="-645.66174"
               y="258.34354" />
          </g>
        </g>
      </g>
    </g>
  </g>
</svg>
