<?xml version="1.0" encoding="UTF-8" standalone="no"?>
<!-- Created with Inkscape (http://www.inkscape.org/) -->

<svg
   xmlns:dc="http://purl.org/dc/elements/1.1/"
   xmlns:cc="http://creativecommons.org/ns#"
   xmlns:rdf="http://www.w3.org/1999/02/22-rdf-syntax-ns#"
   xmlns:svg="http://www.w3.org/2000/svg"
   xmlns="http://www.w3.org/2000/svg"
   xmlns:sodipodi="http://sodipodi.sourceforge.net/DTD/sodipodi-0.dtd"
   xmlns:inkscape="http://www.inkscape.org/namespaces/inkscape"
   width="120.18038"
   height="379.99997"
   viewBox="0 0 31.797726 100.54167"
   version="1.1"
   id="svg4541"
   sodipodi:docname="Random2.svg"
   inkscape:version="0.92.3 (2405546, 2018-03-11)">
  <defs
     id="defs4535" />
  <sodipodi:namedview
     id="base"
     pagecolor="#ffffff"
     bordercolor="#666666"
     borderopacity="1.0"
     inkscape:pageopacity="0.0"
     inkscape:pageshadow="2"
     inkscape:zoom="5"
     inkscape:cx="79.33439"
     inkscape:cy="335.63236"
     inkscape:document-units="mm"
     inkscape:current-layer="g13271"
     showgrid="false"
     fit-margin-top="0"
     fit-margin-left="0"
     fit-margin-right="0"
     fit-margin-bottom="0"
     inkscape:window-width="1231"
     inkscape:window-height="708"
     inkscape:window-x="0"
     inkscape:window-y="27"
     inkscape:window-maximized="1"
     units="px" />
  <metadata
     id="metadata4538">
    <rdf:RDF>
      <cc:Work
         rdf:about="">
        <dc:format>image/svg+xml</dc:format>
        <dc:type
           rdf:resource="http://purl.org/dc/dcmitype/StillImage" />
        <dc:title />
      </cc:Work>
    </rdf:RDF>
  </metadata>
  <g
     inkscape:label="Layer 1"
     inkscape:groupmode="layer"
     id="layer1"
     transform="translate(-6.6477068,-91.775301)">
    <g
       transform="matrix(0.27602379,0,0,0.27602379,354.09618,57.736346)"
       id="g13122"
       style="stroke-width:0.9585526">
      <g
         transform="translate(-167.07644,-20.557569)"
         id="g13178"
         style="stroke-width:0.91882312">
        <g
           transform="translate(-99.2314,6.0949065)"
           id="g13224"
           style="stroke-width:0.88074034">
          <g
             transform="translate(-315.65411,137.78158)"
             id="g13271"
             style="stroke-width:0.84423596">
            <path
               style="fill:#e6e6e6;fill-opacity:1;fill-rule:nonzero;stroke:none;stroke-width:0.84423596"
               d="m -676.5352,0.265625 h 114.67187 V 363.98828 H -676.5352 Z m 0,0"
               id="path25061"
               inkscape:connector-curvature="0"
               inkscape:export-filename="/home/vortico/src/cpp/VCV/Rack/plugins/Fundamental/res/Delay.png"
               inkscape:export-xdpi="100.2962"
               inkscape:export-ydpi="100.2962" />
            <path
               inkscape:connector-curvature="0"
               style="fill:#212121;stroke-width:0.85135299"
               d="m -579.38378,331.08554 c 0,1.33039 -1.00553,2.40933 -2.24398,2.40933 h -70.28874 c -1.23845,0 -2.24302,-1.07894 -2.24302,-2.40933 v -35.32805 c 0,-1.33037 1.00457,-2.40931 2.24302,-2.40931 h 70.28874 c 1.23845,0 2.24398,1.07894 2.24398,2.40931 z"
               id="path11" />
            <ellipse
               cx="-653.68036"
               cy="33.891422"
               rx="5.7189851"
               ry="6.5208964"
               id="ellipse131"
               style="stroke-width:0.62295991" />
            <ellipse
               style="fill:#e6e6e6;fill-opacity:1;stroke-width:0.62295991"
               cx="-653.68036"
               cy="33.891422"
               rx="3.7169189"
               ry="4.2381949"
               id="ellipse133" />
            <ellipse
               cx="-653.68036"
               cy="33.892941"
               rx="1.7155552"
               ry="1.9562691"
               id="ellipse135"
               style="stroke-width:0.62295991" />
            <polygon
               transform="matrix(0.70223293,0,0,0.77537415,-670.51994,-247.69467)"
               style="fill:#e6e6e6;fill-opacity:1;stroke-width:0.84423596"
               points="28.555,365.118 28.555,361.205 32.531,363.162 "
               id="polygon137" />
            <circle
               style="fill:#000000;fill-opacity:1;stroke:#e6e6e6;stroke-width:1.17948103;stroke-opacity:1"
               id="path108"
               cx="-651.45099"
               cy="131.09956"
               r="13.901764" />
            <rect
               style="fill:#000000;fill-opacity:1;stroke:#e6e6e6;stroke-width:0;stroke-miterlimit:4;stroke-dasharray:none;stroke-opacity:1"
               id="rect113"
               width="50.324013"
               height="1.7117012"
               x="-645.04565"
               y="131.64137" />
            <circle
               style="fill:#000000;fill-opacity:1;stroke:#e6e6e6;stroke-width:1.17948115;stroke-opacity:1"
               id="path108-3"
               cx="-651.72473"
               cy="195.35588"
               r="13.901764" />
            <rect
               style="fill:#000000;fill-opacity:1;stroke:#e6e6e6;stroke-width:0;stroke-miterlimit:4;stroke-dasharray:none;stroke-opacity:1"
               id="rect113-6"
               width="50.324009"
               height="1.7117012"
               x="-645.66174"
               y="194.35715" />
            <circle
               style="fill:#000000;fill-opacity:1;stroke:#e6e6e6;stroke-width:1.17948115;stroke-opacity:1"
               id="path108-7"
               cx="-651.51935"
               cy="259.34225"
               r="13.901764" />
            <rect
               style="fill:#000000;fill-opacity:1;stroke:#e6e6e6;stroke-width:0;stroke-miterlimit:4;stroke-dasharray:none;stroke-opacity:1"
               id="rect113-5"
               width="50.324009"
               height="1.7117012"
               x="-645.66174"
               y="258.34354" />
            <g
               aria-label="CIRCLEFADE"
               transform="matrix(1.0170654,0,0,0.98322099,1.2074164,-2.3238181)"
               style="font-style:normal;font-variant:normal;font-weight:normal;font-stretch:normal;font-size:18.79800415px;line-height:1.25;font-family:'DIN Condensed';-inkscape-font-specification:'DIN Condensed, ';font-variant-ligatures:normal;font-variant-caps:normal;font-variant-numeric:normal;text-align:start;letter-spacing:0px;word-spacing:0px;writing-mode:lr-tb;text-anchor:start;fill:#000000;fill-opacity:1;stroke:none;stroke-width:0.39674881"
               id="text512">
              <path
                 inkscape:connector-curvature="0"
                 d="m -629.00543,40.223344 q 0,0.620334 -0.24438,1.184274 -0.22557,0.563941 -0.63913,0.996295 -0.41356,0.413556 -0.9775,0.676728 -0.54514,0.244374 -1.18427,0.244374 -0.54514,0 -1.10908,-0.150384 -0.56394,-0.150384 -1.01509,-0.507546 -0.45116,-0.37596 -0.75192,-0.977496 -0.28197,-0.601537 -0.28197,-1.522639 v -7.368817 q 0,-0.657931 0.22557,-1.221871 0.22558,-0.56394 0.63913,-0.977496 0.41356,-0.413556 0.9775,-0.639132 0.58274,-0.244374 1.27826,-0.244374 0.65793,0 1.22187,0.244374 0.56394,0.225576 0.9775,0.65793 0.41356,0.413556 0.63913,1.015092 0.24438,0.582738 0.24438,1.278265 v 0.75192 h -1.9174 v -0.639132 q 0,-0.563941 -0.31957,-0.977497 -0.31956,-0.413556 -0.8647,-0.413556 -0.71433,0 -0.9587,0.451152 -0.22558,0.432355 -0.22558,1.109083 v 6.842473 q 0,0.582738 0.24438,0.977496 0.26317,0.394758 0.9211,0.394758 0.18798,0 0.39476,-0.05639 0.22557,-0.07519 0.39475,-0.225576 0.18798,-0.150384 0.30077,-0.413556 0.11279,-0.263172 0.11279,-0.65793 v -0.65793 h 1.9174 z"
                 style="font-style:normal;font-variant:normal;font-weight:normal;font-stretch:normal;font-family:'DIN Condensed';-inkscape-font-specification:'DIN Condensed, ';stroke-width:0.39674881"
                 id="path551" />
              <path
                 inkscape:connector-curvature="0"
                 d="m -627.4029,29.828048 h 1.91739 v 13.384179 h -1.91739 z"
                 style="font-style:normal;font-variant:normal;font-weight:normal;font-stretch:normal;font-family:'DIN Condensed';-inkscape-font-specification:'DIN Condensed, ';stroke-width:0.39674881"
                 id="path553" />
              <path
                 inkscape:connector-curvature="0"
                 d="m -621.72356,35.805813 h 1.09029 q 0.50754,0 0.80831,-0.131586 0.30077,-0.150384 0.45115,-0.413556 0.16919,-0.263172 0.22558,-0.639132 0.0564,-0.394758 0.0564,-0.902304 0,-0.507546 -0.0564,-0.883506 -0.0564,-0.394759 -0.24437,-0.657931 -0.16919,-0.28197 -0.48875,-0.413556 -0.31957,-0.131586 -0.84591,-0.131586 h -0.9963 z m -1.91739,-5.977765 h 3.08287 q 3.38364,0 3.38364,3.928783 0,1.165476 -0.37596,2.011386 -0.35716,0.827112 -1.27826,1.334659 l 2.06778,6.109351 h -2.03019 l -1.78581,-5.714593 h -1.14668 v 5.714593 h -1.91739 z"
                 style="font-style:normal;font-variant:normal;font-weight:normal;font-stretch:normal;font-family:'DIN Condensed';-inkscape-font-specification:'DIN Condensed, ';stroke-width:0.39674881"
                 id="path555" />
              <path
                 inkscape:connector-curvature="0"
                 d="m -609.54656,40.223344 q 0,0.620334 -0.24438,1.184274 -0.22557,0.563941 -0.63913,0.996295 -0.41355,0.413556 -0.97749,0.676728 -0.54515,0.244374 -1.18428,0.244374 -0.54514,0 -1.10908,-0.150384 -0.56394,-0.150384 -1.01509,-0.507546 -0.45115,-0.37596 -0.75192,-0.977496 -0.28197,-0.601537 -0.28197,-1.522639 v -7.368817 q 0,-0.657931 0.22557,-1.221871 0.22558,-0.56394 0.63914,-0.977496 0.41355,-0.413556 0.97749,-0.639132 0.58274,-0.244374 1.27827,-0.244374 0.65793,0 1.22187,0.244374 0.56394,0.225576 0.97749,0.65793 0.41356,0.413556 0.63913,1.015092 0.24438,0.582738 0.24438,1.278265 v 0.75192 h -1.9174 v -0.639132 q 0,-0.563941 -0.31956,-0.977497 -0.31957,-0.413556 -0.86471,-0.413556 -0.71433,0 -0.9587,0.451152 -0.22558,0.432355 -0.22558,1.109083 v 6.842473 q 0,0.582738 0.24438,0.977496 0.26317,0.394758 0.9211,0.394758 0.18798,0 0.39476,-0.05639 0.22557,-0.07519 0.39476,-0.225576 0.18798,-0.150384 0.30076,-0.413556 0.11279,-0.263172 0.11279,-0.65793 v -0.65793 h 1.9174 z"
                 style="font-style:normal;font-variant:normal;font-weight:normal;font-stretch:normal;font-family:'DIN Condensed';-inkscape-font-specification:'DIN Condensed, ';stroke-width:0.39674881"
                 id="path557" />
              <path
                 inkscape:connector-curvature="0"
                 d="m -608.00043,29.828048 h 1.9174 V 41.29483 h 3.7972 v 1.917397 h -5.7146 z"
                 style="font-style:normal;font-variant:normal;font-weight:normal;font-stretch:normal;font-family:'DIN Condensed';-inkscape-font-specification:'DIN Condensed, ';stroke-width:0.39674881"
                 id="path559" />
              <path
                 inkscape:connector-curvature="0"
                 d="m -601.06132,29.828048 h 5.71459 v 1.804608 h -3.79719 v 3.928783 h 3.30845 v 1.804609 h -3.30845 v 3.928782 h 3.79719 v 1.917397 h -5.71459 z"
                 style="font-style:normal;font-variant:normal;font-weight:normal;font-stretch:normal;font-family:'DIN Condensed';-inkscape-font-specification:'DIN Condensed, ';stroke-width:0.39674881"
                 id="path561" />
              <path
                 inkscape:connector-curvature="0"
                 d="m -594.12221,29.828048 h 5.71459 v 1.804608 h -3.7972 v 4.060369 h 3.30845 v 1.804609 h -3.30845 v 5.714593 h -1.91739 z"
                 style="font-style:normal;font-variant:normal;font-weight:normal;font-stretch:normal;font-family:'DIN Condensed';-inkscape-font-specification:'DIN Condensed, ';stroke-width:0.39674881"
                 id="path563" />
              <path
                 inkscape:connector-curvature="0"
                 d="m -585.2052,33.681639 h -0.0376 l -0.9399,4.849885 h 1.9174 z m -0.80832,-3.853591 h 1.59783 l 2.98888,13.384179 h -1.91739 l -0.56394,-2.876095 h -2.61292 l -0.56394,2.876095 h -1.9174 z"
                 style="font-style:normal;font-variant:normal;font-weight:normal;font-stretch:normal;font-family:'DIN Condensed';-inkscape-font-specification:'DIN Condensed, ';stroke-width:0.39674881"
                 id="path565" />
              <path
                 inkscape:connector-curvature="0"
                 d="m -580.501,29.828048 h 2.8385 q 1.63542,0 2.50013,0.921102 0.86471,0.902304 0.86471,2.537731 v 6.259735 q 0,1.8798 -0.9211,2.782105 -0.90231,0.883506 -2.61292,0.883506 h -2.66932 z m 1.9174,11.57957 h 0.8835 q 0.80832,0 1.14668,-0.394758 0.33836,-0.413556 0.33836,-1.278264 v -6.447715 q 0,-0.789516 -0.31956,-1.221871 -0.31957,-0.432354 -1.16548,-0.432354 h -0.8835 z"
                 style="font-style:normal;font-variant:normal;font-weight:normal;font-stretch:normal;font-family:'DIN Condensed';-inkscape-font-specification:'DIN Condensed, ';stroke-width:0.39674881"
                 id="path567" />
              <path
                 inkscape:connector-curvature="0"
                 d="m -572.49716,29.828048 h 5.71459 v 1.804608 h -3.7972 v 3.928783 h 3.30845 v 1.804609 h -3.30845 v 3.928782 h 3.7972 v 1.917397 h -5.71459 z"
                 style="font-style:normal;font-variant:normal;font-weight:normal;font-stretch:normal;font-family:'DIN Condensed';-inkscape-font-specification:'DIN Condensed, ';stroke-width:0.39674881"
                 id="path569" />
            </g>
            <g
               aria-label="RANDOM"
               transform="matrix(1.0946015,0,0,1.2042878,88.498175,-3.8235195)"
               style="font-style:normal;font-variant:normal;font-weight:300;font-stretch:normal;font-size:50.89910126px;line-height:1.25;font-family:'DIN Light';-inkscape-font-specification:'DIN Light, Light';font-variant-ligatures:normal;font-variant-caps:normal;font-variant-numeric:normal;text-align:start;letter-spacing:0px;word-spacing:0px;writing-mode:lr-tb;text-anchor:start;fill:#000000;fill-opacity:1;stroke:none;stroke-width:1.07427132"
               id="text138">
              <path
                 d="m -665.05093,16.034648 h 0.98405 q 0.45809,0 0.72955,-0.118765 0.27146,-0.135731 0.40719,-0.37326 0.1527,-0.237529 0.2036,-0.576856 0.0509,-0.356294 0.0509,-0.814386 0,-0.458092 -0.0509,-0.797419 -0.0509,-0.356294 -0.22056,-0.593823 -0.1527,-0.254496 -0.44113,-0.37326 -0.28843,-0.118765 -0.76348,-0.118765 h -0.89922 z m -1.73057,-5.395305 h 2.78248 q 3.05395,0 3.05395,3.545971 0,1.051914 -0.33933,1.815401 -0.32236,0.74652 -1.15371,1.204612 l 1.8663,5.51407 h -1.83237 l -1.6118,-5.157776 h -1.03495 v 5.157776 h -1.73057 z"
                 style="font-style:normal;font-variant:normal;font-weight:bold;font-stretch:condensed;font-size:16.96636772px;font-family:'DIN Condensed';-inkscape-font-specification:'DIN Condensed, Bold Condensed';font-variant-ligatures:normal;font-variant-caps:normal;font-variant-numeric:normal;font-feature-settings:normal;text-align:start;writing-mode:lr-tb;text-anchor:start;stroke-width:1.07427132"
                 id="path359"
                 inkscape:connector-curvature="0" />
              <path
                 d="m -656.91079,14.117448 h -0.0339 l -0.84832,4.377323 h 1.73057 z m -0.72955,-3.478105 h 1.44214 l 2.69765,12.080054 h -1.73057 l -0.50899,-2.595855 h -2.35832 l -0.50899,2.595855 h -1.73057 z"
                 style="font-style:normal;font-variant:normal;font-weight:bold;font-stretch:condensed;font-size:16.96636772px;font-family:'DIN Condensed';-inkscape-font-specification:'DIN Condensed, Bold Condensed';font-variant-ligatures:normal;font-variant-caps:normal;font-variant-numeric:normal;font-feature-settings:normal;text-align:start;writing-mode:lr-tb;text-anchor:start;stroke-width:1.07427132"
                 id="path361"
                 inkscape:connector-curvature="0" />
              <path
                 d="m -652.73282,10.639343 h 1.66271 l 2.61282,7.278572 h 0.0339 v -7.278572 h 1.73057 v 12.080054 h -1.62877 l -2.64676,-7.261606 h -0.0339 v 7.261606 h -1.73057 z"
                 style="font-style:normal;font-variant:normal;font-weight:bold;font-stretch:condensed;font-size:16.96636772px;font-family:'DIN Condensed';-inkscape-font-specification:'DIN Condensed, Bold Condensed';font-variant-ligatures:normal;font-variant-caps:normal;font-variant-numeric:normal;font-feature-settings:normal;text-align:start;writing-mode:lr-tb;text-anchor:start;stroke-width:1.07427132"
                 id="path363"
                 inkscape:connector-curvature="0" />
              <path
                 d="m -645.14275,10.639343 h 2.56192 q 1.47607,0 2.25652,0.831352 0.78046,0.814385 0.78046,2.290459 v 5.649801 q 0,1.696637 -0.83135,2.511022 -0.81439,0.79742 -2.35833,0.79742 h -2.40922 z m 1.73057,10.451282 h 0.79741 q 0.72956,0 1.03495,-0.356293 0.3054,-0.373261 0.3054,-1.153713 v -5.819465 q 0,-0.712587 -0.28843,-1.102813 -0.28843,-0.390227 -1.05192,-0.390227 h -0.79741 z"
                 style="font-style:normal;font-variant:normal;font-weight:bold;font-stretch:condensed;font-size:16.96636772px;font-family:'DIN Condensed';-inkscape-font-specification:'DIN Condensed, Bold Condensed';font-variant-ligatures:normal;font-variant-caps:normal;font-variant-numeric:normal;font-feature-settings:normal;text-align:start;writing-mode:lr-tb;text-anchor:start;stroke-width:1.07427132"
                 id="path365"
                 inkscape:connector-curvature="0" />
              <path
                 d="m -638.02059,13.489693 q 0,-0.729554 0.25449,-1.289444 0.2545,-0.559891 0.66169,-0.916184 0.42416,-0.37326 0.93315,-0.55989 0.52596,-0.18663 1.05192,-0.18663 0.52595,0 1.03495,0.18663 0.52595,0.18663 0.93315,0.55989 0.42416,0.356293 0.67865,0.916184 0.2545,0.55989 0.2545,1.289444 v 6.379354 q 0,0.74652 -0.2545,1.30641 -0.25449,0.542924 -0.67865,0.916184 -0.4072,0.356294 -0.93315,0.542924 -0.509,0.18663 -1.03495,0.18663 -0.52596,0 -1.05192,-0.18663 -0.50899,-0.18663 -0.93315,-0.542924 -0.40719,-0.37326 -0.66169,-0.916184 -0.25449,-0.55989 -0.25449,-1.30641 z m 1.73057,6.379354 q 0,0.627755 0.33933,0.93315 0.35629,0.288428 0.83135,0.288428 0.47506,0 0.81438,-0.288428 0.3563,-0.305395 0.3563,-0.93315 v -6.379354 q 0,-0.627756 -0.3563,-0.916184 -0.33932,-0.305395 -0.81438,-0.305395 -0.47506,0 -0.83135,0.305395 -0.33933,0.288428 -0.33933,0.916184 z"
                 style="font-style:normal;font-variant:normal;font-weight:bold;font-stretch:condensed;font-size:16.96636772px;font-family:'DIN Condensed';-inkscape-font-specification:'DIN Condensed, Bold Condensed';font-variant-ligatures:normal;font-variant-caps:normal;font-variant-numeric:normal;font-feature-settings:normal;text-align:start;writing-mode:lr-tb;text-anchor:start;stroke-width:1.07427132"
                 id="path367"
                 inkscape:connector-curvature="0" />
              <path
                 d="m -630.69483,10.639343 h 1.6627 l 2.2226,6.39632 h 0.0339 l 2.20563,-6.39632 h 1.67967 v 12.080054 h -1.73057 v -7.346438 h -0.0339 l -1.71361,5.191709 h -0.86528 l -1.69664,-5.191709 h -0.0339 v 7.346438 h -1.73057 z"
                 style="font-style:normal;font-variant:normal;font-weight:bold;font-stretch:condensed;font-size:16.96636772px;font-family:'DIN Condensed';-inkscape-font-specification:'DIN Condensed, Bold Condensed';font-variant-ligatures:normal;font-variant-caps:normal;font-variant-numeric:normal;font-feature-settings:normal;text-align:start;writing-mode:lr-tb;text-anchor:start;stroke-width:1.07427132"
                 id="path369"
                 inkscape:connector-curvature="0" />
            </g>
            <rect
               style="fill:#000000;fill-opacity:1;stroke:#e6e6e6;stroke-width:0;stroke-miterlimit:4;stroke-dasharray:none;stroke-opacity:1"
               id="rect113-9"
               width="8.4992666"
               height="1.3477087"
               x="-655.95923"
               y="80.876442" />
            <rect
               style="fill:#000000;fill-opacity:1;stroke:#e6e6e6;stroke-width:0;stroke-miterlimit:4;stroke-dasharray:none;stroke-opacity:1"
               id="rect113-9-8"
               width="28.628872"
               height="1.3477079"
               x="-82.224152"
               y="-648.80768"
               transform="rotate(-90)" />
            <rect
               style="fill:#000000;fill-opacity:1;stroke:#e6e6e6;stroke-width:0;stroke-miterlimit:4;stroke-dasharray:none;stroke-opacity:1"
               id="rect113-9-4"
               width="5.3360429"
               height="1.3477088"
               x="-648.80768"
               y="53.59528" />
            <rect
               style="fill:#000000;fill-opacity:1;stroke:#e6e6e6;stroke-width:0;stroke-miterlimit:4;stroke-dasharray:none;stroke-opacity:1"
               id="rect113-9-8-8"
               width="28.628872"
               height="1.3477079"
               x="-82.224152"
               y="-644.81934"
               transform="rotate(-90)" />
            <rect
               style="fill:#000000;fill-opacity:1;stroke:#e6e6e6;stroke-width:0;stroke-miterlimit:4;stroke-dasharray:none;stroke-opacity:1"
               id="rect113-9-4-1"
               width="5.3360424"
               height="1.3477088"
               x="-644.81934"
               y="80.876442" />
            <rect
               style="fill:#000000;fill-opacity:1;stroke:#e6e6e6;stroke-width:0;stroke-miterlimit:4;stroke-dasharray:none;stroke-opacity:1"
               id="rect113-9-8-0"
               width="28.628872"
               height="1.3477079"
               x="-82.224152"
               y="-640.83099"
               transform="rotate(-90)" />
            <rect
               style="fill:#000000;fill-opacity:1;stroke:#e6e6e6;stroke-width:0;stroke-miterlimit:4;stroke-dasharray:none;stroke-opacity:1"
               id="rect113-9-4-3"
               width="5.3360424"
               height="1.3477088"
               x="-640.83099"
               y="53.595284" />
            <rect
               style="fill:#000000;fill-opacity:1;stroke:#e6e6e6;stroke-width:0;stroke-miterlimit:4;stroke-dasharray:none;stroke-opacity:1"
               id="rect113-9-8-8-0"
               width="28.628872"
               height="1.3477079"
               x="-82.224152"
               y="-636.84265"
               transform="rotate(-90)" />
            <rect
               style="fill:#000000;fill-opacity:1;stroke:#e6e6e6;stroke-width:0;stroke-miterlimit:4;stroke-dasharray:none;stroke-opacity:1"
               id="rect113-9-4-1-4"
               width="5.3360424"
               height="1.3477088"
               x="-636.84265"
               y="80.876442" />
            <rect
               style="fill:#000000;fill-opacity:1;stroke:#e6e6e6;stroke-width:0;stroke-miterlimit:4;stroke-dasharray:none;stroke-opacity:1"
               id="rect113-9-8-4"
               width="28.628872"
               height="1.3477079"
               x="-82.224152"
               y="-632.85431"
               transform="rotate(-90)" />
            <rect
               style="fill:#000000;fill-opacity:1;stroke:#e6e6e6;stroke-width:0;stroke-miterlimit:4;stroke-dasharray:none;stroke-opacity:1"
               id="rect113-9-4-4"
               width="5.3360424"
               height="1.3477088"
               x="-632.85431"
               y="53.59528" />
            <rect
               style="fill:#000000;fill-opacity:1;stroke:#e6e6e6;stroke-width:0;stroke-miterlimit:4;stroke-dasharray:none;stroke-opacity:1"
               id="rect113-9-8-8-4"
               width="28.628872"
               height="1.3477079"
               x="-82.224152"
               y="-628.86597"
               transform="rotate(-90)" />
            <rect
               style="fill:#000000;fill-opacity:1;stroke:#e6e6e6;stroke-width:0;stroke-miterlimit:4;stroke-dasharray:none;stroke-opacity:1"
               id="rect113-9-4-1-7"
               width="29.299856"
               height="1.3477075"
               x="-628.86597"
               y="80.876442" />
            <rect
               style="fill:#000000;fill-opacity:1;stroke:#e6e6e6;stroke-width:0;stroke-miterlimit:4;stroke-dasharray:none;stroke-opacity:1"
               id="rect113-9-8-6"
               width="28.628872"
               height="1.3477079"
               x="-82.224152"
               y="-600.91382"
               transform="rotate(-90)" />
            <rect
               style="fill:#000000;fill-opacity:1;stroke:#e6e6e6;stroke-width:0;stroke-miterlimit:4;stroke-dasharray:none;stroke-opacity:1"
               id="rect113-9-4-31"
               width="5.3360424"
               height="1.3477088"
               x="-600.91382"
               y="53.595284" />
            <rect
               style="fill:#000000;fill-opacity:1;stroke:#e6e6e6;stroke-width:0;stroke-miterlimit:4;stroke-dasharray:none;stroke-opacity:1"
               id="rect113-9-8-8-7"
               width="28.628872"
               height="1.3477079"
               x="-82.224152"
               y="-596.92548"
               transform="rotate(-90)" />
            <rect
               style="fill:#000000;fill-opacity:1;stroke:#e6e6e6;stroke-width:0;stroke-miterlimit:4;stroke-dasharray:none;stroke-opacity:1"
               id="rect113-9-4-1-5"
               width="5.3360424"
               height="1.3477088"
               x="-596.92548"
               y="80.876442" />
            <rect
               style="fill:#000000;fill-opacity:1;stroke:#e6e6e6;stroke-width:0;stroke-miterlimit:4;stroke-dasharray:none;stroke-opacity:1"
               id="rect113-9-8-9"
               width="28.628872"
               height="1.3477079"
               x="-82.224152"
               y="-592.93713"
               transform="rotate(-90)" />
            <rect
               style="fill:#000000;fill-opacity:1;stroke:#e6e6e6;stroke-width:0;stroke-miterlimit:4;stroke-dasharray:none;stroke-opacity:1"
               id="rect113-9-4-6"
               width="5.3360424"
               height="1.3477088"
               x="-592.93713"
               y="53.59528" />
            <rect
               style="fill:#000000;fill-opacity:1;stroke:#e6e6e6;stroke-width:0;stroke-miterlimit:4;stroke-dasharray:none;stroke-opacity:1"
               id="rect113-9-8-8-2"
               width="28.628872"
               height="1.3477079"
               x="-82.224152"
               y="-588.94879"
               transform="rotate(-90)" />
            <rect
               style="fill:#000000;fill-opacity:1;stroke:#e6e6e6;stroke-width:0;stroke-miterlimit:4;stroke-dasharray:none;stroke-opacity:1"
               id="rect113-9-4-1-1"
               width="7.9241343"
               height="1.3477086"
               x="-588.94879"
               y="80.876442" />
            <g
               aria-label="DENSITY"
               transform="matrix(1.1462758,0,0,0.87239039,-3.8342106,0)"
               style="font-style:normal;font-variant:normal;font-weight:bold;font-stretch:condensed;font-size:11.61494541px;line-height:1.25;font-family:'DIN Condensed';-inkscape-font-specification:'DIN Condensed, Bold Condensed';font-variant-ligatures:normal;font-variant-caps:normal;font-variant-numeric:normal;font-feature-settings:normal;text-align:start;letter-spacing:0px;word-spacing:0px;writing-mode:lr-tb;text-anchor:start;fill:#000000;fill-opacity:1;stroke:none;stroke-width:0.73543161"
               id="text404">
              <path
                 d="m -527.34928,111.95331 h 1.75385 q 1.01051,0 1.54479,0.56913 0.53429,0.55752 0.53429,1.56802 v 3.86778 q 0,1.16149 -0.56913,1.71901 -0.55752,0.5459 -1.61448,0.5459 h -1.64932 z m 1.18472,7.15481 h 0.5459 q 0.49945,0 0.70852,-0.24392 0.20907,-0.25553 0.20907,-0.78981 v -3.98393 q 0,-0.48783 -0.19746,-0.75497 -0.19745,-0.26714 -0.72013,-0.26714 h -0.5459 z"
                 style="stroke-width:0.73543161"
                 id="path442"
                 inkscape:connector-curvature="0" />
              <path
                 d="m -522.40386,111.95331 h 3.53095 v 1.11504 h -2.34622 v 2.42752 h 2.04423 v 1.11503 h -2.04423 v 2.42753 h 2.34622 v 1.18472 h -3.53095 z"
                 style="stroke-width:0.73543161"
                 id="path444"
                 inkscape:connector-curvature="0" />
              <path
                 d="m -518.16277,111.95331 h 1.13827 l 1.7887,4.98281 h 0.0232 v -4.98281 h 1.18472 v 8.26984 h -1.11503 l -1.81193,-4.97119 h -0.0232 v 4.97119 h -1.18473 z"
                 style="stroke-width:0.73543161"
                 id="path446"
                 inkscape:connector-curvature="0" />
              <path
                 d="m -509.13378,114.33437 h -1.18473 v -0.26714 q 0,-0.40652 -0.19745,-0.6969 -0.18584,-0.30198 -0.63882,-0.30198 -0.24392,0 -0.40653,0.0929 -0.15099,0.0929 -0.24391,0.24391 -0.0813,0.13938 -0.11615,0.33683 -0.0348,0.18584 -0.0348,0.39491 0,0.24391 0.0116,0.41814 0.0232,0.16261 0.0929,0.29037 0.0697,0.11615 0.19746,0.20907 0.13937,0.0929 0.37167,0.18584 l 0.90597,0.36006 q 0.39491,0.151 0.63882,0.36007 0.24392,0.19745 0.37168,0.47621 0.13938,0.26714 0.18584,0.62721 0.0465,0.34845 0.0465,0.80143 0,0.52267 -0.10454,0.97565 -0.10453,0.44137 -0.34844,0.76659 -0.2323,0.3136 -0.62721,0.49944 -0.39491,0.18584 -0.96404,0.18584 -0.42975,0 -0.80143,-0.15099 -0.37168,-0.151 -0.63883,-0.40653 -0.26714,-0.26714 -0.42975,-0.6272 -0.15099,-0.36007 -0.15099,-0.7782 v -0.44137 h 1.18472 v 0.37168 q 0,0.32521 0.18584,0.59236 0.19746,0.25553 0.65044,0.25553 0.30199,0 0.4646,-0.0813 0.17422,-0.0929 0.25552,-0.24391 0.0929,-0.16261 0.11615,-0.39491 0.0232,-0.2323 0.0232,-0.51106 0,-0.32522 -0.0232,-0.53428 -0.0232,-0.20907 -0.10453,-0.33684 -0.0697,-0.12776 -0.20907,-0.20907 -0.12776,-0.0813 -0.34845,-0.17422 l -0.84789,-0.34845 q -0.76659,-0.3136 -1.03373,-0.82466 -0.25553,-0.52267 -0.25553,-1.30087 0,-0.4646 0.12777,-0.88274 0.12776,-0.41814 0.37167,-0.72013 0.25553,-0.30199 0.63883,-0.47621 0.38329,-0.18584 0.89435,-0.18584 0.44137,0 0.80143,0.16261 0.37168,0.16261 0.62721,0.42975 0.26714,0.26715 0.40652,0.60398 0.13938,0.32522 0.13938,0.67367 z"
                 style="stroke-width:0.73543161"
                 id="path448"
                 inkscape:connector-curvature="0" />
              <path
                 d="m -508.2133,111.95331 h 1.18473 v 8.26984 h -1.18473 z"
                 style="stroke-width:0.73543161"
                 id="path450"
                 inkscape:connector-curvature="0" />
              <path
                 d="m -505.11065,113.06835 h -1.37057 v -1.11504 h 3.92585 v 1.11504 h -1.37056 v 7.1548 h -1.18472 z"
                 style="stroke-width:0.73543161"
                 id="path452"
                 inkscape:connector-curvature="0" />
              <path
                 d="m -500.92891,116.72705 -1.62609,-4.77374 h 1.25441 l 0.95243,3.28703 h 0.0232 l 0.95242,-3.28703 h 1.25442 l -1.6261,4.77374 v 3.4961 h -1.18472 z"
                 style="stroke-width:0.73543161"
                 id="path454"
                 inkscape:connector-curvature="0" />
            </g>
            <g
               aria-label="TEMPERATURE"
               transform="matrix(1.1416315,0,0,0.8759394,-0.38342107,0.72396368)"
               style="font-style:normal;font-variant:normal;font-weight:bold;font-stretch:condensed;font-size:11.54262352px;line-height:1.25;font-family:'DIN Condensed';-inkscape-font-specification:'DIN Condensed, Bold Condensed';font-variant-ligatures:normal;font-variant-caps:normal;font-variant-numeric:normal;font-feature-settings:normal;text-align:start;letter-spacing:0px;word-spacing:0px;writing-mode:lr-tb;text-anchor:start;fill:#000000;fill-opacity:1;stroke:none;stroke-width:0.73085237"
               id="text408">
              <path
                 d="m -542.30529,182.88089 h -1.36203 v -1.10809 h 3.90141 v 1.10809 h -1.36203 v 7.11026 h -1.17735 z"
                 style="stroke-width:0.73085237"
                 id="path457"
                 inkscape:connector-curvature="0" />
              <path
                 d="m -539.24613,181.7728 h 3.50895 v 1.10809 h -2.33161 v 2.41241 h 2.03151 v 1.10809 h -2.03151 v 2.41241 h 2.33161 v 1.17735 h -3.50895 z"
                 style="stroke-width:0.73085237"
                 id="path459"
                 inkscape:connector-curvature="0" />
              <path
                 d="m -534.98528,181.7728 h 1.13118 l 1.51208,4.35157 h 0.0231 l 1.50055,-4.35157 h 1.14272 v 8.21835 h -1.17735 v -4.99796 h -0.0231 l -1.1658,3.53205 h -0.58868 l -1.15426,-3.53205 h -0.0231 v 4.99796 h -1.17735 z"
                 style="stroke-width:0.73085237"
                 id="path461"
                 inkscape:connector-curvature="0" />
              <path
                 d="m -528.56019,181.7728 h 1.76602 q 0.48479,0 0.85416,0.12697 0.36936,0.12697 0.66947,0.45016 0.30011,0.3232 0.41553,0.76182 0.11543,0.42707 0.11543,1.1658 0,0.5425 -0.0693,0.93495 -0.0577,0.38091 -0.26548,0.71565 -0.24239,0.40399 -0.64638,0.63484 -0.40399,0.21931 -1.06192,0.21931 h -0.60022 v 3.20885 h -1.17735 z m 1.17735,3.90141 h 0.56559 q 0.35782,0 0.55404,-0.10388 0.19623,-0.10389 0.28857,-0.27703 0.0923,-0.18468 0.10388,-0.43862 0.0231,-0.25394 0.0231,-0.56559 0,-0.28856 -0.0231,-0.5425 -0.0115,-0.26548 -0.10388,-0.45016 -0.0808,-0.19623 -0.26548,-0.30011 -0.18468,-0.11543 -0.53096,-0.11543 h -0.61176 z"
                 style="stroke-width:0.73085237"
                 id="path463"
                 inkscape:connector-curvature="0" />
              <path
                 d="m -523.871,181.7728 h 3.50896 v 1.10809 h -2.33161 v 2.41241 h 2.0315 v 1.10809 h -2.0315 v 2.41241 h 2.33161 v 1.17735 h -3.50896 z"
                 style="stroke-width:0.73085237"
                 id="path465"
                 inkscape:connector-curvature="0" />
              <path
                 d="m -518.4328,185.44336 h 0.66947 q 0.31165,0 0.49634,-0.0808 0.18468,-0.0923 0.27702,-0.25394 0.10388,-0.1616 0.13851,-0.39245 0.0346,-0.24239 0.0346,-0.55404 0,-0.31166 -0.0346,-0.54251 -0.0346,-0.24239 -0.15005,-0.40399 -0.10389,-0.17314 -0.30011,-0.25394 -0.19623,-0.0808 -0.51942,-0.0808 h -0.61176 z m -1.17735,-3.67056 h 1.89299 q 2.07768,0 2.07768,2.41241 0,0.71564 -0.23086,1.23506 -0.21931,0.50788 -0.78489,0.81953 l 1.26968,3.75135 h -1.2466 l -1.09655,-3.50896 h -0.7041 v 3.50896 h -1.17735 z"
                 style="stroke-width:0.73085237"
                 id="path467"
                 inkscape:connector-curvature="0" />
              <path
                 d="m -512.89486,184.13904 h -0.0231 l -0.57713,2.978 h 1.17735 z m -0.49634,-2.36624 h 0.98113 l 1.83527,8.21835 h -1.17734 l -0.34628,-1.76602 h -1.60443 l -0.34628,1.76602 h -1.17734 z"
                 style="stroke-width:0.73085237"
                 id="path469"
                 inkscape:connector-curvature="0" />
              <path
                 d="m -509.8642,182.88089 h -1.36203 v -1.10809 h 3.9014 v 1.10809 h -1.36203 v 7.11026 h -1.17734 z"
                 style="stroke-width:0.73085237"
                 id="path471"
                 inkscape:connector-curvature="0" />
              <path
                 d="m -502.99598,188.14433 q 0,0.40399 -0.15006,0.75027 -0.15005,0.34628 -0.41553,0.61176 -0.25394,0.25394 -0.60022,0.40399 -0.34627,0.15006 -0.73872,0.15006 -0.39245,0 -0.73873,-0.15006 -0.34628,-0.15005 -0.61176,-0.40399 -0.25394,-0.26548 -0.40399,-0.61176 -0.15006,-0.34628 -0.15006,-0.75027 v -6.37153 h 1.17735 v 6.2561 q 0,0.43862 0.20777,0.64639 0.20777,0.20777 0.51942,0.20777 0.31165,0 0.51941,-0.20777 0.20777,-0.20777 0.20777,-0.64639 v -6.2561 h 1.17735 z"
                 style="stroke-width:0.73085237"
                 id="path473"
                 inkscape:connector-curvature="0" />
              <path
                 d="m -500.71307,185.44336 h 0.66947 q 0.31165,0 0.49634,-0.0808 0.18468,-0.0923 0.27702,-0.25394 0.10388,-0.1616 0.13851,-0.39245 0.0346,-0.24239 0.0346,-0.55404 0,-0.31166 -0.0346,-0.54251 -0.0346,-0.24239 -0.15005,-0.40399 -0.10389,-0.17314 -0.30011,-0.25394 -0.19623,-0.0808 -0.51942,-0.0808 h -0.61176 z m -1.17735,-3.67056 h 1.89299 q 2.07768,0 2.07768,2.41241 0,0.71564 -0.23086,1.23506 -0.21931,0.50788 -0.78489,0.81953 l 1.26968,3.75135 h -1.2466 l -1.09655,-3.50896 h -0.7041 v 3.50896 h -1.17735 z"
                 style="stroke-width:0.73085237"
                 id="path475"
                 inkscape:connector-curvature="0" />
              <path
                 d="m -496.97578,181.7728 h 3.50896 v 1.10809 h -2.33161 v 2.41241 h 2.0315 v 1.10809 h -2.0315 v 2.41241 h 2.33161 v 1.17735 h -3.50896 z"
                 style="stroke-width:0.73085237"
                 id="path477"
                 inkscape:connector-curvature="0" />
            </g>
            <g
               aria-label="RATCHET"
               transform="scale(1.0969957,0.9115806)"
               style="font-style:normal;font-variant:normal;font-weight:bold;font-stretch:condensed;font-size:11.98703289px;line-height:1.25;font-family:'DIN Condensed';-inkscape-font-specification:'DIN Condensed, Bold Condensed';font-variant-ligatures:normal;font-variant-caps:normal;font-variant-numeric:normal;font-feature-settings:normal;text-align:start;letter-spacing:0px;word-spacing:0px;writing-mode:lr-tb;text-anchor:start;fill:#000000;fill-opacity:1;stroke:none;stroke-width:0.75899136"
               id="text412">
              <path
                 d="m -552.96263,251.0209 h 0.69525 q 0.32365,0 0.51544,-0.0839 0.1918,-0.0959 0.28769,-0.26372 0.10789,-0.16781 0.14385,-0.40755 0.036,-0.25173 0.036,-0.57538 0,-0.32365 -0.036,-0.56339 -0.036,-0.25173 -0.15583,-0.41955 -0.10789,-0.1798 -0.31167,-0.26371 -0.20378,-0.0839 -0.53941,-0.0839 h -0.63532 z m -1.22267,-3.81188 h 1.96587 q 2.15767,0 2.15767,2.50529 0,0.7432 -0.23974,1.28261 -0.22776,0.52743 -0.81512,0.85108 l 1.31857,3.89579 h -1.2946 l -1.13877,-3.64406 h -0.73121 v 3.64406 h -1.22267 z"
                 style="stroke-width:0.75899136"
                 id="path480" />
              <path
                 d="m -547.21147,249.66636 h -0.024 l -0.59935,3.09266 h 1.22268 z m -0.51545,-2.45734 h 1.0189 l 1.90594,8.53477 h -1.22268 l -0.35961,-1.83402 h -1.6662 l -0.35961,1.83402 h -1.22267 z"
                 style="stroke-width:0.75899136"
                 id="path482" />
              <path
                 d="m -544.06413,248.35978 h -1.41447 v -1.15076 h 4.05162 v 1.15076 h -1.41447 v 7.38401 h -1.22268 z"
                 style="stroke-width:0.75899136"
                 id="path484" />
              <path
                 d="m -537.00339,253.83785 q 0,0.39557 -0.15583,0.75518 -0.14385,0.35962 -0.40756,0.63532 -0.26372,0.26371 -0.62333,0.43153 -0.34762,0.15583 -0.75518,0.15583 -0.34762,0 -0.70723,-0.0959 -0.35962,-0.0959 -0.6473,-0.32365 -0.28769,-0.23974 -0.47949,-0.62333 -0.1798,-0.38359 -0.1798,-0.97095 v -4.69892 q 0,-0.41954 0.14384,-0.77915 0.14385,-0.35961 0.40756,-0.62333 0.26372,-0.26371 0.62333,-0.40756 0.3716,-0.15583 0.81512,-0.15583 0.41954,0 0.77915,0.15583 0.35961,0.14385 0.62333,0.41955 0.26371,0.26371 0.40756,0.6473 0.15583,0.3716 0.15583,0.81512 v 0.47948 h -1.22268 v -0.40756 q 0,-0.35961 -0.20378,-0.62333 -0.20378,-0.26371 -0.5514,-0.26371 -0.45551,0 -0.61134,0.28769 -0.14384,0.2757 -0.14384,0.70723 v 4.36328 q 0,0.3716 0.15583,0.62333 0.16782,0.25172 0.58736,0.25172 0.11987,0 0.25173,-0.036 0.14384,-0.0479 0.25173,-0.14384 0.11987,-0.0959 0.19179,-0.26372 0.0719,-0.16781 0.0719,-0.41954 v -0.41955 h 1.22268 z"
                 style="stroke-width:0.75899136"
                 id="path486" />
              <path
                 d="m -536.01746,247.20902 h 1.22268 v 3.65605 h 1.51037 v -3.65605 h 1.22267 v 8.53477 h -1.22267 v -3.79989 h -1.51037 v 3.79989 h -1.22268 z"
                 style="stroke-width:0.75899136"
                 id="path488" />
              <path
                 d="m -530.9136,247.20902 h 3.64405 v 1.15076 h -2.42138 v 2.50529 h 2.10972 v 1.15075 h -2.10972 v 2.50529 h 2.42138 v 1.22268 h -3.64405 z"
                 style="stroke-width:0.75899136"
                 id="path490" />
              <path
                 d="m -525.68557,248.35978 h -1.41447 v -1.15076 h 4.05162 v 1.15076 h -1.41447 v 7.38401 h -1.22268 z"
                 style="stroke-width:0.75899136"
                 id="path492" />
            </g>
            <g
               aria-label="PITCH"
               transform="scale(1.1071083,0.90325399)"
               style="font-style:normal;font-variant:normal;font-weight:bold;font-stretch:condensed;font-size:10.92491436px;line-height:1.25;font-family:'DIN Condensed';-inkscape-font-specification:'DIN Condensed, Bold Condensed';font-variant-ligatures:normal;font-variant-caps:normal;font-variant-numeric:normal;font-feature-settings:normal;text-align:start;letter-spacing:0px;word-spacing:0px;writing-mode:lr-tb;text-anchor:start;fill:#f2f2f2;fill-opacity:1;stroke:none;stroke-width:0.69174045"
               id="text416">
              <path
                 d="m -585.31386,327.79907 h 1.67151 q 0.45885,0 0.80844,0.12017 0.3496,0.12018 0.63365,0.42607 0.28405,0.3059 0.3933,0.72105 0.10925,0.40422 0.10925,1.10341 0,0.51347 -0.0655,0.88492 -0.0546,0.36052 -0.25128,0.67735 -0.22942,0.38237 -0.61179,0.60087 -0.38237,0.20757 -1.00509,0.20757 h -0.5681 v 3.03713 h -1.11434 z m 1.11434,3.69262 h 0.53532 q 0.33867,0 0.5244,-0.0983 0.18572,-0.0983 0.27312,-0.26219 0.0874,-0.1748 0.0983,-0.41515 0.0219,-0.24035 0.0219,-0.53532 0,-0.27312 -0.0219,-0.51347 -0.0109,-0.25128 -0.0983,-0.42607 -0.0765,-0.18573 -0.25127,-0.28405 -0.1748,-0.10925 -0.50255,-0.10925 h -0.57902 z"
                 style="fill:#f2f2f2;stroke-width:0.69174045"
                 id="path431" />
              <path
                 d="m -580.84284,327.79907 h 1.11434 v 7.77854 h -1.11434 z"
                 style="fill:#f2f2f2;stroke-width:0.69174045"
                 id="path433" />
              <path
                 d="m -577.92452,328.84786 h -1.28914 v -1.04879 h 3.69262 v 1.04879 h -1.28914 v 6.72975 h -1.11434 z"
                 style="fill:#f2f2f2;stroke-width:0.69174045"
                 id="path435" />
              <path
                 d="m -571.48941,333.84054 q 0,0.36053 -0.14202,0.68827 -0.1311,0.32775 -0.37145,0.57902 -0.24035,0.24035 -0.56809,0.3933 -0.31683,0.14203 -0.68827,0.14203 -0.31682,0 -0.64457,-0.0874 -0.32775,-0.0874 -0.58995,-0.29498 -0.2622,-0.21849 -0.43699,-0.56809 -0.16388,-0.3496 -0.16388,-0.88492 v -4.28257 q 0,-0.38237 0.1311,-0.71012 0.1311,-0.32774 0.37145,-0.56809 0.24035,-0.24035 0.56809,-0.37145 0.33868,-0.14202 0.7429,-0.14202 0.38237,0 0.71012,0.14202 0.32774,0.1311 0.56809,0.38237 0.24035,0.24035 0.37145,0.58995 0.14202,0.33867 0.14202,0.74289 v 0.437 h -1.11434 v -0.37145 q 0,-0.32774 -0.18572,-0.56809 -0.18572,-0.24035 -0.50255,-0.24035 -0.41514,0 -0.55717,0.2622 -0.1311,0.25127 -0.1311,0.64457 v 3.97667 q 0,0.33867 0.14203,0.56809 0.15295,0.22942 0.53532,0.22942 0.10925,0 0.22942,-0.0328 0.1311,-0.0437 0.22942,-0.1311 0.10925,-0.0874 0.1748,-0.24035 0.0656,-0.15295 0.0656,-0.38237 v -0.38237 h 1.11434 z"
                 style="fill:#f2f2f2;stroke-width:0.69174045"
                 id="path437" />
              <path
                 d="m -570.59083,327.79907 h 1.11434 v 3.3321 h 1.37654 v -3.3321 h 1.11434 v 7.77854 h -1.11434 v -3.4632 h -1.37654 v 3.4632 h -1.11434 z"
                 style="fill:#f2f2f2;stroke-width:0.69174045"
                 id="path439" />
            </g>
            <g
               aria-label="GATE"
               transform="scale(1.0990929,0.9098412)"
               style="font-style:normal;font-variant:normal;font-weight:bold;font-stretch:condensed;font-size:11.13685131px;line-height:1.25;font-family:'DIN Condensed';-inkscape-font-specification:'DIN Condensed, Bold Condensed';font-variant-ligatures:normal;font-variant-caps:normal;font-variant-numeric:normal;font-feature-settings:normal;text-align:start;letter-spacing:0px;word-spacing:0px;writing-mode:lr-tb;text-anchor:start;fill:#f2f2f2;fill-opacity:1;stroke:none;stroke-width:0.70515978"
               id="text420">
              <path
                 d="m -550.75527,327.08782 q 0,-0.47888 0.16705,-0.8464 0.16705,-0.36751 0.43434,-0.60139 0.27842,-0.24501 0.61252,-0.36751 0.34524,-0.12251 0.69049,-0.12251 0.34524,0 0.67934,0.12251 0.34525,0.1225 0.61253,0.36751 0.27842,0.23388 0.44548,0.60139 0.16705,0.36752 0.16705,0.8464 v 0.40093 h -1.13596 v -0.40093 q 0,-0.41206 -0.23387,-0.60139 -0.22274,-0.20046 -0.53457,-0.20046 -0.31183,0 -0.54571,0.20046 -0.22274,0.18933 -0.22274,0.60139 v 4.18746 q 0,0.41206 0.22274,0.61253 0.23388,0.18932 0.54571,0.18932 0.31183,0 0.53457,-0.18932 0.23387,-0.20047 0.23387,-0.61253 v -1.49234 h -0.90209 v -1.00231 h 2.03805 v 2.49465 q 0,0.49002 -0.16705,0.85754 -0.16706,0.35638 -0.44548,0.60139 -0.26728,0.23387 -0.61253,0.35638 -0.3341,0.1225 -0.67934,0.1225 -0.34525,0 -0.69049,-0.1225 -0.3341,-0.12251 -0.61252,-0.35638 -0.26729,-0.24501 -0.43434,-0.60139 -0.16705,-0.36752 -0.16705,-0.85754 z"
                 style="fill:#f2f2f2;stroke-width:0.70515978"
                 id="path422" />
              <path
                 d="m -544.20924,327.49989 h -0.0223 l -0.55684,2.8733 h 1.13596 z m -0.47889,-2.28306 h 0.94664 l 1.77075,7.92944 h -1.13595 l -0.33411,-1.70394 h -1.54802 l -0.33411,1.70394 h -1.13596 z"
                 style="fill:#f2f2f2;stroke-width:0.70515978"
                 id="path424" />
              <path
                 d="m -541.28512,326.28597 h -1.31415 v -1.06914 h 3.76425 v 1.06914 h -1.31414 v 6.8603 h -1.13596 z"
                 style="fill:#f2f2f2;stroke-width:0.70515978"
                 id="path426" />
              <path
                 d="m -538.33351,325.21683 h 3.3856 v 1.06914 h -2.24964 v 2.3276 h 1.96009 v 1.06914 h -1.96009 v 2.3276 h 2.24964 v 1.13596 h -3.3856 z"
                 style="fill:#f2f2f2;stroke-width:0.70515978"
                 id="path428" />
            </g>
            <g
               aria-label="CV"
               transform="matrix(1.0881056,0,0,0.91902844,0.04263121,-66.450639)"
               style="font-style:normal;font-variant:normal;font-weight:300;font-stretch:normal;font-size:35.23748398px;line-height:1.25;font-family:'DIN Light';-inkscape-font-specification:'DIN Light, Light';font-variant-ligatures:normal;font-variant-caps:normal;font-variant-numeric:normal;text-align:start;letter-spacing:0px;word-spacing:0px;writing-mode:lr-tb;text-anchor:start;fill:#000000;fill-opacity:1;stroke:none;stroke-width:0.7437188"
               id="text549">
              <path
                 inkscape:connector-curvature="0"
                 d="m -599.16783,190.64895 q 0,0.31009 -0.12216,0.59199 -0.11276,0.2819 -0.31949,0.49802 -0.20672,0.20673 -0.48862,0.33828 -0.27251,0.12216 -0.59199,0.12216 -0.27251,0 -0.55441,-0.0752 -0.28189,-0.0752 -0.50741,-0.25371 -0.22552,-0.18794 -0.37587,-0.48863 -0.14095,-0.30069 -0.14095,-0.76113 v -3.68349 q 0,-0.32888 0.11276,-0.61078 0.11276,-0.2819 0.31949,-0.48863 0.20672,-0.20673 0.48862,-0.31949 0.2913,-0.12215 0.63897,-0.12215 0.32889,0 0.61079,0.12215 0.2819,0.11276 0.48862,0.32889 0.20673,0.20672 0.31949,0.50742 0.12216,0.29129 0.12216,0.63897 v 0.37587 h -0.95846 V 187.05 q 0,-0.2819 -0.15975,-0.48863 -0.15974,-0.20672 -0.43224,-0.20672 -0.35708,0 -0.47923,0.22552 -0.11276,0.21612 -0.11276,0.5544 v 3.42038 q 0,0.2913 0.12215,0.48863 0.13156,0.19733 0.46044,0.19733 0.094,0 0.19733,-0.0282 0.11276,-0.0376 0.19733,-0.11276 0.094,-0.0752 0.15035,-0.20673 0.0564,-0.13155 0.0564,-0.32888 v -0.32888 h 0.95846 z"
                 style="font-style:normal;font-variant:normal;font-weight:normal;font-stretch:normal;font-size:9.39666271px;font-family:'DIN Condensed';-inkscape-font-specification:'DIN Condensed, ';stroke-width:0.7437188"
                 id="path572" />
              <path
                 inkscape:connector-curvature="0"
                 d="m -596.51562,192.14302 h -0.8457 l -1.36252,-6.69042 h 1.01484 l 0.76113,4.67014 h 0.0188 l 0.77053,-4.67014 h 1.01484 z"
                 style="font-style:normal;font-variant:normal;font-weight:normal;font-stretch:normal;font-size:9.39666271px;font-family:'DIN Condensed';-inkscape-font-specification:'DIN Condensed, ';stroke-width:0.7437188"
                 id="path574" />
            </g>
            <g
               aria-label="CV"
               transform="matrix(1.0881056,0,0,0.91902844,-0.42287609,-0.58767549)"
               style="font-style:normal;font-variant:normal;font-weight:300;font-stretch:normal;font-size:35.23748398px;line-height:1.25;font-family:'DIN Light';-inkscape-font-specification:'DIN Light, Light';font-variant-ligatures:normal;font-variant-caps:normal;font-variant-numeric:normal;text-align:start;letter-spacing:0px;word-spacing:0px;writing-mode:lr-tb;text-anchor:start;fill:#000000;fill-opacity:1;stroke:none;stroke-width:0.7437188"
               id="text549-1">
              <path
                 inkscape:connector-curvature="0"
                 d="m -599.16783,190.64895 q 0,0.31009 -0.12216,0.59199 -0.11276,0.2819 -0.31949,0.49802 -0.20672,0.20673 -0.48862,0.33828 -0.27251,0.12216 -0.59199,0.12216 -0.27251,0 -0.55441,-0.0752 -0.28189,-0.0752 -0.50741,-0.25371 -0.22552,-0.18794 -0.37587,-0.48863 -0.14095,-0.30069 -0.14095,-0.76113 v -3.68349 q 0,-0.32888 0.11276,-0.61078 0.11276,-0.2819 0.31949,-0.48863 0.20672,-0.20673 0.48862,-0.31949 0.2913,-0.12215 0.63897,-0.12215 0.32889,0 0.61079,0.12215 0.2819,0.11276 0.48862,0.32889 0.20673,0.20672 0.31949,0.50742 0.12216,0.29129 0.12216,0.63897 v 0.37587 h -0.95846 V 187.05 q 0,-0.2819 -0.15975,-0.48863 -0.15974,-0.20672 -0.43224,-0.20672 -0.35708,0 -0.47923,0.22552 -0.11276,0.21612 -0.11276,0.5544 v 3.42038 q 0,0.2913 0.12215,0.48863 0.13156,0.19733 0.46044,0.19733 0.094,0 0.19733,-0.0282 0.11276,-0.0376 0.19733,-0.11276 0.094,-0.0752 0.15035,-0.20673 0.0564,-0.13155 0.0564,-0.32888 v -0.32888 h 0.95846 z"
                 style="font-style:normal;font-variant:normal;font-weight:normal;font-stretch:normal;font-size:9.39666271px;font-family:'DIN Condensed';-inkscape-font-specification:'DIN Condensed, ';stroke-width:0.7437188"
                 id="path572-8" />
              <path
                 inkscape:connector-curvature="0"
                 d="m -596.51562,192.14302 h -0.8457 l -1.36252,-6.69042 h 1.01484 l 0.76113,4.67014 h 0.0188 l 0.77053,-4.67014 h 1.01484 z"
                 style="font-style:normal;font-variant:normal;font-weight:normal;font-stretch:normal;font-size:9.39666271px;font-family:'DIN Condensed';-inkscape-font-specification:'DIN Condensed, ';stroke-width:0.7437188"
                 id="path574-5" />
            </g>
            <g
               aria-label="CV"
               transform="matrix(1.0881056,0,0,0.91902844,-0.61458644,64.018772)"
               style="font-style:normal;font-variant:normal;font-weight:300;font-stretch:normal;font-size:35.23748398px;line-height:1.25;font-family:'DIN Light';-inkscape-font-specification:'DIN Light, Light';font-variant-ligatures:normal;font-variant-caps:normal;font-variant-numeric:normal;text-align:start;letter-spacing:0px;word-spacing:0px;writing-mode:lr-tb;text-anchor:start;fill:#000000;fill-opacity:1;stroke:none;stroke-width:0.7437188"
               id="text549-9">
              <path
                 inkscape:connector-curvature="0"
                 d="m -599.16783,190.64895 q 0,0.31009 -0.12216,0.59199 -0.11276,0.2819 -0.31949,0.49802 -0.20672,0.20673 -0.48862,0.33828 -0.27251,0.12216 -0.59199,0.12216 -0.27251,0 -0.55441,-0.0752 -0.28189,-0.0752 -0.50741,-0.25371 -0.22552,-0.18794 -0.37587,-0.48863 -0.14095,-0.30069 -0.14095,-0.76113 v -3.68349 q 0,-0.32888 0.11276,-0.61078 0.11276,-0.2819 0.31949,-0.48863 0.20672,-0.20673 0.48862,-0.31949 0.2913,-0.12215 0.63897,-0.12215 0.32889,0 0.61079,0.12215 0.2819,0.11276 0.48862,0.32889 0.20673,0.20672 0.31949,0.50742 0.12216,0.29129 0.12216,0.63897 v 0.37587 h -0.95846 V 187.05 q 0,-0.2819 -0.15975,-0.48863 -0.15974,-0.20672 -0.43224,-0.20672 -0.35708,0 -0.47923,0.22552 -0.11276,0.21612 -0.11276,0.5544 v 3.42038 q 0,0.2913 0.12215,0.48863 0.13156,0.19733 0.46044,0.19733 0.094,0 0.19733,-0.0282 0.11276,-0.0376 0.19733,-0.11276 0.094,-0.0752 0.15035,-0.20673 0.0564,-0.13155 0.0564,-0.32888 v -0.32888 h 0.95846 z"
                 style="font-style:normal;font-variant:normal;font-weight:normal;font-stretch:normal;font-size:9.39666271px;font-family:'DIN Condensed';-inkscape-font-specification:'DIN Condensed, ';stroke-width:0.7437188"
                 id="path572-7" />
              <path
                 inkscape:connector-curvature="0"
                 d="m -596.51562,192.14302 h -0.8457 l -1.36252,-6.69042 h 1.01484 l 0.76113,4.67014 h 0.0188 l 0.77053,-4.67014 h 1.01484 z"
                 style="font-style:normal;font-variant:normal;font-weight:normal;font-stretch:normal;font-size:9.39666271px;font-family:'DIN Condensed';-inkscape-font-specification:'DIN Condensed, ';stroke-width:0.7437188"
                 id="path574-53" />
            </g>
          </g>
        </g>
      </g>
    </g>
  </g>
</svg>
